<svg xmlns="http://www.w3.org/2000/svg" viewBox="0 0 886.38 454.03"><defs><style>.cls-1,.cls-4{fill:none;stroke-linecap:round;stroke-miterlimit:10;stroke-width:3px;}.cls-1{stroke:#fff;}.cls-1,.cls-2{opacity:0.2;}.cls-1,.cls-2,.cls-3,.cls-4,.cls-5{isolation:isolate;}.cls-2,.cls-5{fill:#fff;}.cls-3{fill:#009fe8;}.cls-3,.cls-4{opacity:0.8;}.cls-4{stroke:#009fe8;}.cls-5{opacity:0.3;}</style></defs><g id="레이어_2" data-name="레이어 2"><g id="레이어_1-2" data-name="레이어 1"><line class="cls-1" x1="462.93" y1="16.17" x2="612.29" y2="342.63"/><rect class="cls-2" x="540.32" y="125.54" width="247" height="54" rx="13.28" transform="translate(37.81 420.93) rotate(-36.15)"/><rect class="cls-3" x="722.24" y="204.66" width="106.72" height="247" rx="13.28" transform="translate(-43.91 522.18) rotate(-36.25)"/><rect class="cls-2" x="564.45" y="177.3" width="247" height="54" rx="13.28" transform="translate(11.97 445.26) rotate(-36.16)"/><rect class="cls-2" x="478.22" y="344.8" width="247" height="106.72" rx="13.28"/><line class="cls-4" x1="576.13" y1="324.48" x2="584.17" y2="324.48"/><rect class="cls-3" x="181.27" y="91.37" width="250" height="373" rx="13.28" transform="translate(-51.42 485.41) rotate(-72.34)"/><rect class="cls-2" x="397.62" y="86.01" width="91.48" height="112.3" rx="12.45" transform="translate(174.05 521.96) rotate(-72.44)"/><rect class="cls-2" x="274.98" y="40.66" width="112.3" height="91.48" rx="12.45" transform="translate(-10.86 98.94) rotate(-16.72)"/><rect class="cls-2" x="46.57" y="359.17" width="112.3" height="91.48" rx="12.45"/><line class="cls-4" x1="84.59" y1="353.62" x2="91.54" y2="357.66"/><line class="cls-4" x1="77.54" y1="357.66" x2="85.58" y2="357.66"/><line class="cls-4" x1="27.44" y1="449.02" x2="35.48" y2="449.02"/><rect class="cls-5" x="412.75" y="-41.55" width="8.91" height="193.03" rx="3.12" transform="matrix(0.54, -0.84, 0.84, 0.54, 144.46, 375.42)"/><rect class="cls-5" x="527.22" y="251.26" width="8.91" height="96.52" rx="3.12" transform="translate(-74.4 228.38) rotate(-22.7)"/><rect class="cls-5" x="-41.36" y="381.06" width="147.61" height="8.91" rx="3.12" transform="translate(-334.2 262.04) rotate(-66.58)"/><rect class="cls-5" x="340.73" y="139.93" width="8.91" height="28.39" rx="3.12" transform="translate(101.08 442.78) rotate(-73.84)"/><rect class="cls-5" x="572.63" y="335.43" width="28.39" height="8.91" rx="3.12"/><rect class="cls-5" x="204.54" y="441.25" width="142.53" height="8.91" rx="3.12"/><rect class="cls-5" x="175.07" y="427.41" width="86.38" height="8.91" rx="3.12" transform="translate(-140.73 107.4) rotate(-21.08)"/><rect class="cls-5" x="565.53" y="326.05" width="25.4" height="8.91" rx="3.12"/></g></g></svg>