<svg width="497" height="167" viewBox="0 0 497 167" fill="none" xmlns="http://www.w3.org/2000/svg">
<g clip-path="url(#clip0_358_2211)">
<path d="M289.919 95.5451C289.905 95.1652 289.743 94.8056 289.467 94.5419C289.192 94.2782 288.824 94.131 288.441 94.1312H277.82C277.176 94.2071 276.524 94.156 275.9 93.981C275.276 93.806 274.693 93.5106 274.185 93.1115C273.676 92.7124 273.252 92.2176 272.936 91.6554C272.62 91.0932 272.419 90.4747 272.345 89.8352V89.8352C272.253 88.8407 272.465 87.8416 272.953 86.9685C273.441 86.0954 274.183 85.3889 275.082 84.9411C275.774 84.5709 276.295 83.948 276.533 83.2038C276.772 82.4597 276.709 81.6526 276.36 80.9532C276.223 80.5798 275.966 80.2614 275.63 80.0469C275.265 79.6844 274.845 79.3218 274.425 78.9593C274.277 78.8427 274.153 78.6981 274.06 78.5339C273.968 78.3697 273.909 78.189 273.887 78.0021C273.865 77.8153 273.88 77.6259 273.932 77.4449C273.983 77.2639 274.07 77.0948 274.188 76.9473C274.706 76.3691 275.074 75.6734 275.258 74.9212C275.443 74.169 275.439 73.3834 275.246 72.6331C274.966 71.9083 274.512 71.2622 273.924 70.7506C273.335 70.239 272.631 69.8773 271.87 69.6966C271.578 69.6012 271.324 69.4167 271.144 69.1693C270.964 68.9219 270.866 68.6244 270.867 68.319V63.6786L272.509 63.4973C273.138 63.4973 273.742 63.2491 274.187 62.8072C274.631 62.3652 274.881 61.7659 274.881 61.1409C274.881 60.5159 274.631 59.9165 274.187 59.4746C273.742 59.0327 273.138 58.7844 272.509 58.7844H262.837C263.202 58.0594 263.567 57.6968 263.749 57.3343L276.159 39.7516C277.436 37.9389 277.619 37.2138 276.159 35.7637C273.056 32.5009 273.239 29.4194 275.246 25.7941C279.752 17.3444 286.673 10.407 295.139 5.85488C295.964 5.43034 296.757 4.94564 297.511 4.40476C297.951 4.03115 298.233 3.50628 298.301 2.93501C298.369 2.36374 298.217 1.78815 297.876 1.32324C297.622 0.953144 297.249 0.679808 296.818 0.548065C296.386 0.416322 295.923 0.433992 295.503 0.598178C293.152 1.61157 290.893 2.8245 288.751 4.22349C280.631 9.58612 274.133 17.0428 269.954 25.7941C268.98 27.5713 268.581 29.6029 268.809 31.6133C269.038 33.6238 269.884 35.5157 271.232 37.0326C271.454 37.2421 271.639 37.4872 271.779 37.7576C271.414 38.1202 271.232 38.664 270.867 39.0265C267.034 44.4645 263.202 49.9024 259.187 55.5217C258.778 56.0188 258.473 56.591 258.288 57.2056C258.102 57.8203 258.041 58.4652 258.107 59.1034C258.173 59.7416 258.365 60.3605 258.673 60.9248C258.98 61.4891 259.397 61.9875 259.899 62.3916C260.314 62.7946 260.812 63.1037 261.358 63.2979C262.072 63.5006 262.807 63.6223 263.548 63.6605H263.767L266.231 66.4701C265.629 70.9655 265.611 72.1256 268.439 73.467C268.614 73.5551 268.77 73.6769 268.897 73.8252C269.024 73.9736 269.12 74.1455 269.179 74.3311C269.238 74.5166 269.26 74.7121 269.243 74.9061C269.225 75.1 269.169 75.2886 269.078 75.4609V75.5878C268.515 76.4323 268.284 77.4526 268.429 78.455C268.574 79.4574 269.084 80.3722 269.863 81.0257C270.093 81.2971 270.219 81.6406 270.219 81.9955C270.219 82.3504 270.093 82.6939 269.863 82.9653C268.382 84.7188 267.562 86.9301 267.545 89.2189C267.549 91.7344 268.545 94.1482 270.318 95.9438C272.092 97.7393 274.503 98.7739 277.035 98.826H288.459C288.85 98.8213 289.223 98.6651 289.499 98.3908C289.775 98.1164 289.933 97.7457 289.937 97.3578V95.5451H289.919Z" fill="#009FE8" stroke="#009FE8" stroke-width="0.5" stroke-miterlimit="10"/>
<path d="M9.87887 6.30804C11.1736 6.3385 12.4088 6.85443 13.3363 7.75218C14.2639 8.64994 14.8151 9.86304 14.8793 11.1478C14.8018 12.4297 14.2345 13.6338 13.2932 14.5142C12.352 15.3946 11.1079 15.8849 9.815 15.8849C8.5221 15.8849 7.27798 15.3946 6.33676 14.5142C5.39554 13.6338 4.82824 12.4297 4.75073 11.1478C4.81192 9.83986 5.37967 8.60598 6.33533 7.70406C7.291 6.80213 8.56062 6.30195 9.87887 6.30804V6.30804ZM8.05391 28.0599H11.5213C11.7227 28.0575 11.9225 28.0945 12.1094 28.1688C12.2963 28.2432 12.4666 28.3533 12.6107 28.493C12.7547 28.6327 12.8697 28.7993 12.9489 28.9831C13.0282 29.1669 13.0702 29.3645 13.0726 29.5644V95.7807C13.0678 96.1831 12.9048 96.5677 12.6183 96.8522C12.3319 97.1367 11.9447 97.2987 11.5396 97.3034H8.16341C7.9621 97.3034 7.76276 97.264 7.57677 97.1875C7.39078 97.1109 7.22179 96.9988 7.07944 96.8574C6.93709 96.716 6.82417 96.5482 6.74713 96.3634C6.67009 96.1787 6.63044 95.9807 6.63044 95.7807V95.7807V29.6369C6.62799 29.4363 6.66597 29.2372 6.74214 29.0514C6.81832 28.8655 6.93114 28.6967 7.07398 28.5548C7.21682 28.413 7.38679 28.3009 7.57388 28.2252C7.76098 28.1496 7.96142 28.1119 8.16341 28.1143V28.1143L8.05391 28.0599Z" fill="white" stroke="white" stroke-width="0.25" stroke-miterlimit="10"/>
<path d="M38.111 97.3034H34.7531C34.3496 97.3034 33.9625 97.1455 33.6755 96.8638C33.3885 96.5822 33.2249 96.1995 33.2201 95.7989V29.6188C33.2249 29.2181 33.3885 28.8355 33.6755 28.5538C33.9625 28.2722 34.3496 28.1142 34.7531 28.1143H37.9832C38.3867 28.1142 38.7738 28.2722 39.0608 28.5538C39.3478 28.8355 39.5114 29.2181 39.5162 29.6188V39.0627H40.1549C43.3669 31.8121 50.7397 27.2079 60.6858 27.2079C74.811 27.2079 84.4102 36.3981 84.4102 51.9326V95.7989C84.4054 96.1995 84.2418 96.5822 83.9548 96.8638C83.6679 97.1455 83.2807 97.3034 82.8773 97.3034H79.5376C79.1342 97.3034 78.747 97.1455 78.46 96.8638C78.1731 96.5822 78.0094 96.1995 78.0046 95.7989V52.2951C78.0046 40.6397 70.577 33.0628 59.2805 33.0628C47.984 33.0628 39.644 40.8935 39.644 53.002V95.7989C39.6392 96.1995 39.4755 96.5822 39.1886 96.8638C38.9016 97.1455 38.5144 97.3034 38.111 97.3034Z" fill="white" stroke="white" stroke-width="0.25" stroke-miterlimit="10"/>
<path d="M128.428 33.7154H116.895C116.483 33.7154 116.089 33.8777 115.798 34.1667C115.507 34.4556 115.343 34.8475 115.343 35.2562V80.3551C115.343 88.8383 120.818 92.2098 126.768 92.2098H130.18C130.377 92.2001 130.573 92.2289 130.759 92.2947C130.944 92.3605 131.115 92.462 131.26 92.5934C131.406 92.7247 131.524 92.8833 131.608 93.0601C131.692 93.2369 131.74 93.4284 131.75 93.6237C131.758 93.6595 131.758 93.6967 131.75 93.7325V96.7596C131.748 97.1403 131.606 97.5072 131.35 97.7911C131.095 98.0749 130.744 98.2561 130.363 98.3003C129.304 98.3003 128.009 98.4635 126.238 98.5179C117.387 98.5179 108.919 92.518 108.919 81.6964V35.2562C108.915 34.849 108.75 34.4598 108.46 34.1719C108.17 33.884 107.778 33.7201 107.368 33.7154H100.214C99.803 33.7154 99.4084 33.5531 99.1175 33.2641C98.8266 32.9752 98.6632 32.5833 98.6632 32.1747V29.6369C98.6607 29.4363 98.6987 29.2372 98.7749 29.0514C98.8511 28.8656 98.9639 28.6967 99.1067 28.5549C99.2496 28.413 99.4195 28.3009 99.6066 28.2253C99.7937 28.1496 99.9942 28.1119 100.196 28.1143H107.387C107.796 28.1096 108.188 27.9458 108.478 27.6578C108.768 27.3699 108.933 26.9807 108.938 26.5735V13.0693C108.938 12.8669 108.978 12.6666 109.056 12.4796C109.134 12.2927 109.248 12.1229 109.392 11.9798C109.536 11.8367 109.707 11.7232 109.895 11.6458C110.084 11.5684 110.285 11.5285 110.489 11.5285H113.81C114.219 11.5333 114.608 11.6977 114.895 11.9861C115.182 12.2746 115.343 12.6637 115.343 13.0693V26.5735C115.343 26.9822 115.507 27.3741 115.798 27.663C116.089 27.952 116.483 28.1143 116.895 28.1143H128.428C128.63 28.1119 128.829 28.1489 129.016 28.2232C129.203 28.2976 129.374 28.4077 129.518 28.5474C129.662 28.6871 129.777 28.8537 129.856 29.0375C129.935 29.2213 129.977 29.4189 129.98 29.6188V32.1565C129.98 32.5668 129.817 32.9606 129.526 33.2525C129.236 33.5443 128.841 33.7106 128.428 33.7154V33.7154Z" fill="white" stroke="white" stroke-width="0.25" stroke-miterlimit="10"/>
<path d="M142.754 63.026C142.754 42.253 155.255 27.0811 172.775 27.0811C188.36 27.0811 201.974 39.389 201.974 60.7421V62.7541C201.97 63.1613 201.805 63.5505 201.515 63.8384C201.225 64.1263 200.833 64.2902 200.423 64.2949H150.894C150.686 64.2949 150.48 64.3358 150.289 64.4153C150.097 64.4947 149.923 64.6112 149.777 64.7579C149.631 64.9045 149.516 65.0785 149.438 65.2698C149.361 65.461 149.322 65.6657 149.324 65.8719V65.8719C150.072 81.7145 159.325 92.808 174.034 92.808C177.79 92.9379 181.514 92.0894 184.837 90.3467C188.161 88.6041 190.967 86.0281 192.977 82.8746C193.111 82.6412 193.305 82.4475 193.539 82.3137C193.773 82.1798 194.039 82.1106 194.309 82.1133H197.959C198.369 82.1132 198.763 82.2724 199.056 82.557C199.35 82.8415 199.519 83.2288 199.529 83.6359C199.524 83.8667 199.474 84.0943 199.383 84.3066C195.733 92.0285 186.718 98.8079 173.979 98.681C155 98.7716 142.809 83.7991 142.754 63.026ZM193.853 58.5669C194.263 58.5622 194.655 58.3983 194.945 58.1104C195.235 57.8225 195.4 57.4333 195.404 57.0261V57.0261C194.656 43.395 185.276 33.0084 172.738 33.0084C160.201 33.0084 150.894 43.5037 149.488 56.8992C149.471 57.0993 149.493 57.3009 149.555 57.4923C149.616 57.6837 149.715 57.8612 149.845 58.0145C149.976 58.1678 150.136 58.294 150.316 58.3857C150.496 58.4773 150.692 58.5328 150.894 58.5488H193.853V58.5669Z" fill="white" stroke="white" stroke-width="0.25" stroke-miterlimit="10"/>
<path d="M219.731 28.1143H222.943C223.144 28.1119 223.344 28.1489 223.531 28.2232C223.718 28.2975 223.888 28.4077 224.032 28.5474C224.176 28.6871 224.291 28.8536 224.371 29.0375C224.45 29.2213 224.492 29.4188 224.494 29.6188V29.6188V38.9177H225.005C227.943 31.7758 235.645 27.0629 244.624 27.0629H246.449C246.842 27.0816 247.214 27.2502 247.486 27.5337C247.758 27.8173 247.909 28.194 247.909 28.5856V31.8665C247.909 32.064 247.869 32.2597 247.793 32.4422C247.717 32.6247 247.606 32.7906 247.465 32.9303C247.324 33.07 247.157 33.1808 246.973 33.2564C246.79 33.3321 246.593 33.371 246.394 33.371H246.193C245.609 33.371 244.934 33.2622 244.186 33.2622C232.834 33.2622 224.567 41.1654 224.567 51.9869V95.7807C224.563 96.1831 224.399 96.5676 224.113 96.8522C223.827 97.1367 223.439 97.2986 223.034 97.3033H219.676C219.475 97.3033 219.276 97.264 219.09 97.1874C218.904 97.1109 218.735 96.9988 218.592 96.8574C218.45 96.716 218.337 96.5481 218.26 96.3634C218.183 96.1787 218.143 95.9807 218.143 95.7807V29.6369C218.138 29.4371 218.174 29.2384 218.248 29.0527C218.322 28.8669 218.434 28.6979 218.575 28.5558C218.716 28.4137 218.885 28.3013 219.071 28.2255C219.257 28.1496 219.457 28.1118 219.658 28.1143H219.731Z" fill="white" stroke="white" stroke-width="0.25" stroke-miterlimit="10"/>
<path d="M325.853 57.6787C330.306 57.3343 339.887 56.6455 344.321 56.3555C344.705 56.3281 345.065 56.1582 345.329 55.8794C345.593 55.6007 345.741 55.2335 345.745 54.8509V48.9417C345.745 39.1171 338.938 32.9359 327.659 32.8816C318.644 32.8816 311.782 36.8331 309.61 43.3768C309.512 43.6886 309.319 43.9625 309.058 44.1606C308.796 44.3586 308.479 44.4711 308.15 44.4826H304.501C304.087 44.4778 303.693 44.3114 303.403 44.0196C303.112 43.7278 302.949 43.334 302.949 42.9237C302.93 42.8097 302.93 42.6933 302.949 42.5793C305.395 33.0991 315.268 27.1354 327.86 27.1354C339.668 27.1354 352.114 33.3166 352.114 49.4492V95.8532C352.109 96.2539 351.945 96.6365 351.658 96.9182C351.371 97.1998 350.984 97.3578 350.581 97.3577H347.223C347.024 97.3601 346.827 97.3236 346.642 97.2502C346.457 97.1768 346.289 97.0679 346.146 96.9299C346.004 96.7919 345.891 96.6274 345.812 96.4457C345.734 96.2641 345.692 96.0689 345.69 95.8714V95.8714V85.3579H345.179C343.206 89.5148 340.052 93.0079 336.106 95.4073C332.16 97.8067 327.594 99.0076 322.969 98.8622C310.797 98.8622 300.65 91.4122 300.65 78.2161C300.705 65.9625 309.629 58.9475 325.853 57.6787ZM323.882 92.9711C336.839 92.9711 345.781 82.9109 345.781 69.6603V63.4429C345.781 63.0422 345.622 62.6577 345.339 62.3726C345.055 62.0876 344.67 61.9251 344.266 61.9203H344.157C339.595 62.2103 330.433 62.9354 327.167 63.1529C312.731 64.2405 307.22 70.0954 307.092 78.4517C307.183 87.4969 314.301 92.9711 323.882 92.9711Z" fill="white" stroke="white" stroke-width="0.25" stroke-miterlimit="10"/>
<path d="M368.465 62.8991C368.465 42.3074 380.912 27.0811 398.742 27.0811C411.516 27.0811 421.809 34.9117 424.437 46.7484C424.476 46.9497 424.475 47.1569 424.433 47.3577C424.391 47.5585 424.308 47.7489 424.191 47.9177C424.074 48.0865 423.924 48.2304 423.75 48.3409C423.576 48.4513 423.381 48.5262 423.178 48.561H422.941H419.473C419.126 48.5544 418.79 48.4333 418.519 48.2168C418.248 48.0003 418.057 47.7006 417.977 47.3647C416.94 43.1427 414.478 39.4009 411.001 36.7624C407.525 34.1239 403.243 32.7479 398.869 32.8634C384.945 32.9541 374.981 45.3164 374.981 62.7723C374.981 80.2281 384.543 92.8442 398.851 92.8442C403.251 93.0004 407.57 91.6425 411.079 89.0002C414.587 86.3579 417.069 82.5933 418.104 78.343C418.172 78.0039 418.357 77.699 418.627 77.4807C418.897 77.2623 419.235 77.1442 419.583 77.1466H423.05C423.458 77.1514 423.848 77.3158 424.135 77.6043C424.422 77.8927 424.583 78.2819 424.583 78.6874C424.583 78.778 424.583 78.8686 424.583 78.9593C422.028 90.7053 412.1 98.8985 398.869 98.7535C380.711 98.7716 368.52 83.5453 368.465 62.8991Z" fill="white" stroke="white" stroke-width="0.25" stroke-miterlimit="10"/>
<path d="M437.029 63.026C437.029 42.253 449.549 27.0811 467.068 27.0811C482.653 27.0811 496.268 39.389 496.268 60.7421V62.7723C496.258 63.1763 496.091 63.5608 495.802 63.8449C495.512 64.129 495.123 64.2903 494.716 64.2949H445.114C444.906 64.2949 444.701 64.3358 444.509 64.4153C444.317 64.4947 444.144 64.6112 443.998 64.7579C443.852 64.9045 443.736 65.0785 443.659 65.2698C443.581 65.461 443.542 65.6657 443.544 65.8719V65.8719C444.311 81.7326 453.545 92.8261 468.273 92.8261C472.026 92.9564 475.748 92.108 479.068 90.3652C482.389 88.6224 485.191 86.0461 487.197 82.8927C487.332 82.6606 487.527 82.4679 487.761 82.3343C487.994 82.2006 488.26 82.1306 488.53 82.1314H492.18C492.59 82.1361 492.981 82.3 493.271 82.5879C493.561 82.8758 493.726 83.265 493.731 83.6722C493.726 83.8971 493.676 84.1189 493.585 84.3247C489.935 92.0467 480.901 98.826 468.181 98.6991C449.238 98.7716 437.029 83.7991 437.029 63.026ZM488.128 58.5669C488.538 58.5622 488.93 58.3983 489.22 58.1104C489.51 57.8225 489.675 57.4333 489.679 57.0261V57.0261C488.931 43.395 479.551 32.9903 467.013 32.9903C454.476 32.9903 445.114 43.4675 443.709 56.9536C443.691 57.1542 443.715 57.3562 443.777 57.5476C443.84 57.7391 443.94 57.9161 444.073 58.0683C444.206 58.2204 444.368 58.3445 444.55 58.4333C444.732 58.522 444.93 58.5736 445.132 58.585H488.128V58.5669Z" fill="white" stroke="white" stroke-width="0.25" stroke-miterlimit="10"/>
</g>
<path d="M16.968 125.858V137.09H18.96V125.858H16.968ZM4.944 138.194V139.754H17.016V141.914H4.992V146.378H6.936V143.402H18.984V138.194H4.944ZM4.992 145.73V147.314H19.704V145.73H4.992ZM6.84 126.482V128.138C6.84 131.282 4.608 134.162 1.344 135.314L2.328 136.898C6 135.554 8.496 132.146 8.496 128.138V126.482H6.84ZM7.2 126.482V128.138C7.2 132.026 9.696 135.218 13.344 136.466L14.328 134.906C11.112 133.85 8.832 131.138 8.832 128.138V126.482H7.2ZM28.9901 127.73V131.618C28.9901 135.722 26.3741 139.874 23.1581 141.41L24.3821 143.042C27.9341 141.242 30.6221 136.61 30.6221 131.618V127.73H28.9901ZM29.3261 127.73V131.618C29.3261 136.442 32.0381 140.906 35.5661 142.634L36.7661 141.05C33.5501 139.562 30.9581 135.578 30.9581 131.618V127.73H29.3261ZM39.0221 125.834V147.578H41.0141V125.834H39.0221ZM60.1883 125.858V141.722H62.1803V125.858H60.1883ZM61.5563 132.434V134.09H65.3963V132.434H61.5563ZM54.2603 127.538V128.402C54.2603 132.578 50.8283 135.938 45.3563 137.618L46.2203 139.25C52.4363 137.258 56.3723 133.154 56.3723 127.538H54.2603ZM46.2443 127.538V129.17H55.2683V127.538H46.2443ZM48.6443 145.442V147.074H63.1403V145.442H48.6443ZM48.6443 140.114V146.09H50.6363V140.114H48.6443ZM83.1936 129.674V131.306H89.2656V129.674H83.1936ZM83.1936 134.306V135.962H89.3136V134.306H83.1936ZM73.7856 127.73V137.906H83.6976V127.73H73.7856ZM81.7296 129.338V136.298H75.7296V129.338H81.7296ZM88.6416 125.882V141.722H90.6336V125.882H88.6416ZM76.6896 145.442V147.074H91.1616V145.442H76.6896ZM76.6896 140.282V146.186H78.6816V140.282H76.6896ZM106.448 131.114V132.746H111.272V131.114H106.448ZM110.72 125.858V137.642H112.712V125.858H110.72ZM98.8157 138.698V147.266H112.712V138.698H110.744V141.338H100.784V138.698H98.8157ZM100.784 142.946H110.744V145.634H100.784V142.946ZM100.4 127.562V129.338C100.4 132.41 98.1677 135.29 94.9277 136.418L95.9597 138.026C99.5837 136.682 102.032 133.274 102.032 129.338V127.562H100.4ZM100.784 127.562V129.314C100.784 132.962 103.112 136.226 106.64 137.498L107.648 135.938C104.504 134.834 102.392 132.122 102.392 129.314V127.562H100.784ZM95.5517 127.154V128.762H107.144V127.154H95.5517ZM138.117 125.858V147.554H140.109V125.858H138.117ZM122.853 128.186V129.818H135.141V128.186H122.853ZM122.517 142.202C126.477 142.178 131.685 142.106 136.365 141.362L136.245 139.898C131.637 140.45 126.309 140.498 122.277 140.498L122.517 142.202ZM125.253 129.41V140.954H127.173V129.41H125.253ZM130.797 129.41V140.954H132.741V129.41H130.797ZM146.875 136.25V137.882H161.779V136.25H146.875ZM144.403 142.97V144.626H164.059V142.97H144.403ZM146.875 127.85V136.97H148.867V129.506H161.563V127.85H146.875ZM167.441 127.25V137.354H175.841V127.25H173.945V130.658H169.313V127.25H167.441ZM169.313 132.242H173.945V135.746H169.313V132.242ZM182.849 125.882V138.89H184.745V125.882H182.849ZM179.345 131.498V133.154H183.449V131.498H179.345ZM178.193 126.266V138.77H180.089V126.266H178.193ZM170.201 140.186V141.818H182.777V147.554H184.745V140.186H170.201ZM195.727 126.506V128.066H211.663V126.506H195.727ZM195.823 132.194V133.73H211.567V132.194H195.823ZM199.015 127.106V133.202H201.007V127.106H199.015ZM206.407 127.106V133.202H208.375V127.106H206.407ZM193.903 135.53V137.138H213.511V135.53H193.903ZM196.279 139.034V140.522H209.047V142.37H196.327V146.402H198.295V143.786H211.015V139.034H196.279ZM196.327 145.802V147.314H211.663V145.802H196.327ZM232.373 125.858V140.642H234.269V125.858H232.373ZM228.893 131.522V133.154H232.973V131.522H228.893ZM227.597 126.266V138.746H229.469V126.266H227.597ZM216.989 136.826V138.434H218.381C221.525 138.434 223.805 138.338 226.541 137.786L226.325 136.178C223.709 136.73 221.453 136.826 218.381 136.826H216.989ZM216.941 127.562V129.17H223.181V132.122H216.989V137.882H218.909V133.634H225.101V127.562H216.941ZM226.085 139.658V140.21C226.085 143.018 222.533 145.346 218.717 145.922L219.509 147.482C223.853 146.714 227.765 144.026 227.765 140.21V139.658H226.085ZM226.349 139.658V140.21C226.349 144.026 230.285 146.714 234.629 147.482L235.421 145.922C231.605 145.346 228.053 143.018 228.053 140.21V139.658H226.349ZM238.059 136.778V138.41H257.667V136.778H238.059ZM246.867 133.874V137.618H248.835V133.874H246.867ZM239.883 126.53V128.162H255.819V126.53H239.883ZM239.979 132.698V134.33H255.723V132.698H239.979ZM243.171 127.25V133.754H245.163V127.25H243.171ZM250.563 127.25V133.754H252.531V127.25H250.563ZM240.459 140.426V147.266H255.267V140.426H240.459ZM253.323 142.01V145.658H242.427V142.01H253.323Z" fill="#EDF6FF"/>
<defs>
<clipPath id="clip0_358_2211">
<rect width="491.973" height="99.2973" fill="white" transform="translate(4.51349)"/>
</clipPath>
</defs>
</svg>
