<svg viewBox="0 0 270 55" fill="none" xmlns="http://www.w3.org/2000/svg">
<g clip-path="url(#clip0_245_698)">
<path d="M156.39 52.71C156.382 52.5004 156.293 52.302 156.142 52.1565C155.991 52.0111 155.79 51.9299 155.58 51.93H149.76C149.405 51.9717 149.045 51.9424 148.702 51.844C148.358 51.7456 148.038 51.58 147.759 51.3567C147.48 51.1335 147.248 50.8571 147.076 50.5435C146.905 50.2299 146.797 49.8854 146.76 49.53C146.714 48.9819 146.832 48.4324 147.099 47.9515C147.366 47.4707 147.77 47.0802 148.26 46.83C148.643 46.6296 148.932 46.286 149.063 45.874C149.194 45.462 149.157 45.0149 148.96 44.63C148.885 44.424 148.745 44.2483 148.56 44.13C148.36 43.93 148.13 43.73 147.9 43.53C147.818 43.4649 147.749 43.384 147.699 43.2922C147.648 43.2004 147.617 43.0994 147.605 42.9951C147.594 42.8909 147.604 42.7855 147.634 42.685C147.664 42.5845 147.714 42.4911 147.78 42.41C148.066 42.0919 148.268 41.7082 148.369 41.2929C148.47 40.8776 148.467 40.4438 148.36 40.03C148.206 39.6301 147.957 39.2737 147.635 38.9914C147.313 38.7092 146.927 38.5096 146.51 38.41C146.35 38.3574 146.211 38.2555 146.112 38.1191C146.013 37.9826 145.96 37.8185 145.96 37.65V35.13L146.86 35.03C147.205 35.03 147.535 34.893 147.779 34.6492C148.023 34.4054 148.16 34.0748 148.16 33.73C148.16 33.3852 148.023 33.0546 147.779 32.8108C147.535 32.567 147.205 32.43 146.86 32.43H141.56C141.76 32.03 141.96 31.83 142.06 31.63L148.86 21.93C149.56 20.93 149.66 20.53 148.86 19.73C147.16 17.93 147.26 16.23 148.36 14.23C150.835 9.57275 154.626 5.74706 159.26 3.23C159.715 3.00009 160.15 2.73248 160.56 2.43C160.803 2.22524 160.959 1.93544 160.997 1.6196C161.034 1.30376 160.949 0.985634 160.76 0.729997C160.621 0.525824 160.416 0.375031 160.18 0.302351C159.944 0.229672 159.69 0.23942 159.46 0.329997C158.176 0.897316 156.938 1.5661 155.76 2.33C151.315 5.29412 147.756 9.40625 145.46 14.23C144.928 15.2108 144.71 16.3313 144.835 17.4401C144.96 18.5489 145.423 19.5925 146.16 20.43C146.284 20.544 146.385 20.6795 146.46 20.83C146.26 21.03 146.16 21.33 145.96 21.53C143.86 24.53 141.76 27.53 139.56 30.63C139.337 30.9057 139.17 31.2227 139.069 31.563C138.968 31.9032 138.935 32.26 138.972 32.6129C139.009 32.9659 139.116 33.308 139.285 33.6198C139.455 33.9316 139.684 34.2069 139.96 34.43C140.187 34.6531 140.46 34.8237 140.76 34.93C141.15 35.0453 141.553 35.1124 141.96 35.13H142.08L143.43 36.68C143.1 39.16 143.09 39.8 144.64 40.54C144.742 40.5918 144.832 40.6644 144.904 40.7529C144.976 40.8415 145.029 40.9441 145.059 41.0543C145.089 41.1644 145.096 41.2796 145.079 41.3925C145.062 41.5055 145.021 41.6136 144.96 41.71C144.654 42.1766 144.529 42.7389 144.608 43.2913C144.687 43.8437 144.965 44.3482 145.39 44.71C145.52 44.8579 145.592 45.0481 145.592 45.245C145.592 45.4419 145.52 45.6321 145.39 45.78C144.584 46.7507 144.136 47.9685 144.12 49.23C144.122 50.6177 144.668 51.9494 145.64 52.9399C146.612 53.9305 147.933 54.5013 149.32 54.53H155.58C155.689 54.5301 155.797 54.5082 155.897 54.4656C155.997 54.423 156.088 54.3607 156.164 54.2822C156.239 54.2038 156.298 54.111 156.337 54.0092C156.376 53.9074 156.394 53.7989 156.39 53.69V52.71Z" fill="#009FE8" stroke="#009FE8" stroke-width="0.5" stroke-miterlimit="10"/>
<path d="M2.94 3.47998C3.64947 3.49679 4.3263 3.78141 4.83455 4.27668C5.34281 4.77196 5.64485 5.44119 5.68 6.14998C5.63753 6.85716 5.32668 7.52144 4.81093 8.00715C4.29518 8.49285 3.61346 8.76332 2.905 8.76332C2.19655 8.76332 1.51483 8.49285 0.999081 8.00715C0.483333 7.52144 0.172476 6.85716 0.130005 6.14998C0.165957 5.42925 0.477808 4.74998 1.00094 4.25291C1.52407 3.75585 2.21838 3.47909 2.94 3.47998ZM1.94 15.48H3.84C3.95115 15.4787 4.06146 15.4994 4.16453 15.541C4.2676 15.5827 4.36139 15.6443 4.44045 15.7224C4.51951 15.8006 4.58228 15.8936 4.62512 15.9962C4.66796 16.0988 4.69001 16.2088 4.69 16.32V52.84C4.69001 52.9511 4.66796 53.0612 4.62512 53.1638C4.58228 53.2663 4.51951 53.3594 4.44045 53.4375C4.36139 53.5156 4.2676 53.5773 4.16453 53.6189C4.06146 53.6606 3.95115 53.6813 3.84 53.68H2C1.88969 53.68 1.78046 53.6583 1.67855 53.616C1.57664 53.5738 1.48404 53.512 1.40604 53.434C1.32803 53.3559 1.26616 53.2633 1.22395 53.1614C1.18173 53.0595 1.16 52.9503 1.16 52.84V16.35C1.16 16.1272 1.2485 15.9135 1.40604 15.756C1.56357 15.5985 1.77722 15.51 2 15.51L1.94 15.48Z" fill="black" stroke="black" stroke-width="0.25" stroke-miterlimit="10"/>
<path d="M18.41 53.68H16.57C16.3489 53.68 16.1368 53.5929 15.9795 53.4375C15.8223 53.2822 15.7326 53.071 15.73 52.85V16.34C15.7326 16.119 15.8223 15.9079 15.9795 15.7525C16.1368 15.5971 16.3489 15.51 16.57 15.51H18.34C18.561 15.51 18.7732 15.5971 18.9304 15.7525C19.0877 15.9079 19.1773 16.119 19.18 16.34V21.55H19.53C21.29 17.55 25.33 15.01 30.78 15.01C38.52 15.01 43.78 20.08 43.78 28.65V52.85C43.7773 53.071 43.6877 53.2822 43.5304 53.4375C43.3732 53.5929 43.161 53.68 42.94 53.68H41.11C40.8889 53.68 40.6768 53.5929 40.5195 53.4375C40.3623 53.2822 40.2726 53.071 40.27 52.85V28.85C40.27 22.42 36.2 18.24 30.01 18.24C23.82 18.24 19.25 22.56 19.25 29.24V52.85C19.2473 53.071 19.1577 53.2822 19.0004 53.4375C18.8432 53.5929 18.631 53.68 18.41 53.68Z" fill="black" stroke="black" stroke-width="0.25" stroke-miterlimit="10"/>
<path d="M67.9 18.6H61.58C61.3546 18.6 61.1384 18.6895 60.979 18.8489C60.8196 19.0083 60.73 19.2246 60.73 19.45V44.33C60.73 49.01 63.73 50.87 66.99 50.87H68.86C68.9732 50.8645 69.0863 50.8823 69.1923 50.9222C69.2984 50.962 69.3951 51.0232 69.4766 51.1019C69.5581 51.1806 69.6227 51.2752 69.6662 51.3797C69.7098 51.4843 69.7315 51.5967 69.73 51.71V53.38C69.7312 53.5907 69.6541 53.7943 69.5137 53.9513C69.3733 54.1084 69.1795 54.2077 68.97 54.23C68.39 54.23 67.68 54.32 66.71 54.35C61.86 54.35 57.22 51.04 57.22 45.07V19.45C57.22 19.2246 57.1305 19.0083 56.9711 18.8489C56.8117 18.6895 56.5955 18.6 56.37 18.6H52.44C52.2146 18.6 51.9984 18.5104 51.839 18.351C51.6796 18.1916 51.59 17.9754 51.59 17.75V16.35C51.59 16.2388 51.6121 16.1288 51.6549 16.0262C51.6977 15.9236 51.7605 15.8306 51.8396 15.7525C51.9186 15.6743 52.0124 15.6127 52.1155 15.571C52.2186 15.5294 52.3289 15.5087 52.44 15.51H56.37C56.5955 15.51 56.8117 15.4204 56.9711 15.261C57.1305 15.1016 57.22 14.8854 57.22 14.66V7.20999C57.22 7.09836 57.242 6.98783 57.2847 6.8847C57.3274 6.78158 57.3901 6.68787 57.469 6.60894C57.5479 6.53001 57.6416 6.4674 57.7447 6.42469C57.8479 6.38197 57.9584 6.35999 58.07 6.35999H59.89C60.1137 6.36262 60.3274 6.45333 60.4846 6.61245C60.6419 6.77157 60.73 6.98627 60.73 7.20999V14.66C60.73 14.8854 60.8196 15.1016 60.979 15.261C61.1384 15.4204 61.3546 15.51 61.58 15.51H67.9C68.0112 15.5087 68.1215 15.5294 68.2246 15.571C68.3276 15.6127 68.4214 15.6743 68.5005 15.7525C68.5795 15.8306 68.6423 15.9236 68.6851 16.0262C68.728 16.1288 68.75 16.2388 68.75 16.35V17.75C68.75 17.9754 68.6605 18.1916 68.5011 18.351C68.3417 18.5104 68.1255 18.6 67.9 18.6Z" fill="black" stroke="black" stroke-width="0.25" stroke-miterlimit="10"/>
<path d="M75.75 34.77C75.75 23.31 82.6 14.94 92.2 14.94C100.74 14.94 108.2 21.73 108.2 33.51V34.62C108.2 34.8454 108.11 35.0616 107.951 35.221C107.792 35.3805 107.575 35.47 107.35 35.47H80.21C80.0953 35.4713 79.9821 35.4954 79.8769 35.5411C79.7717 35.5868 79.6767 35.6531 79.5975 35.736C79.5184 35.8189 79.4565 35.9168 79.4157 36.024C79.3749 36.1312 79.356 36.2454 79.36 36.36C79.77 45.1 84.84 51.22 92.9 51.22C94.9582 51.2937 96.9998 50.8265 98.8211 49.8649C100.642 48.9034 102.18 47.4811 103.28 45.74C103.354 45.6119 103.46 45.5057 103.589 45.4319C103.717 45.3582 103.862 45.3196 104.01 45.32H106.01C106.154 45.3183 106.296 45.3531 106.422 45.4212C106.549 45.4894 106.657 45.5885 106.734 45.7094C106.812 45.8303 106.858 45.969 106.868 46.1125C106.878 46.2561 106.851 46.3997 106.79 46.53C104.79 50.79 99.85 54.53 92.87 54.46C82.46 54.49 75.78 46.23 75.75 34.77ZM103.75 32.31C103.864 32.3101 103.977 32.2871 104.082 32.2426C104.187 32.198 104.283 32.1327 104.362 32.0505C104.441 31.9684 104.503 31.8711 104.544 31.7645C104.585 31.6579 104.604 31.5441 104.6 31.43C104.19 23.91 99.05 18.18 92.18 18.18C85.31 18.18 80.21 24 79.44 31.39C79.4303 31.5074 79.4451 31.6255 79.4835 31.7368C79.5218 31.8482 79.5829 31.9503 79.6628 32.0368C79.7427 32.1233 79.8397 32.1923 79.9477 32.2393C80.0557 32.2863 80.1722 32.3104 80.29 32.31H103.75Z" fill="black" stroke="black" stroke-width="0.25" stroke-miterlimit="10"/>
<path d="M117.93 15.51H119.69C119.801 15.5087 119.911 15.5294 120.015 15.5711C120.118 15.6127 120.211 15.6743 120.29 15.7525C120.37 15.8306 120.432 15.9237 120.475 16.0262C120.518 16.1288 120.54 16.2388 120.54 16.35V21.48H120.82C122.43 17.54 126.65 14.94 131.57 14.94C131.92 14.94 132.27 14.94 132.57 14.94C132.786 14.9503 132.989 15.0433 133.138 15.1997C133.287 15.3562 133.37 15.564 133.37 15.78V17.59C133.371 17.7089 133.347 17.8266 133.298 17.9353C133.25 18.0439 133.179 18.1408 133.089 18.2195C133 18.2982 132.895 18.3568 132.781 18.3914C132.668 18.426 132.548 18.4358 132.43 18.42C132.11 18.42 131.74 18.36 131.33 18.36C125.11 18.36 120.58 22.72 120.58 28.69V52.84C120.58 52.9512 120.558 53.0612 120.515 53.1638C120.472 53.2664 120.41 53.3594 120.33 53.4375C120.251 53.5157 120.158 53.5773 120.055 53.619C119.951 53.6606 119.841 53.6813 119.73 53.68H117.9C117.79 53.68 117.68 53.6583 117.579 53.6161C117.477 53.5738 117.384 53.512 117.306 53.434C117.228 53.356 117.166 53.2634 117.124 53.1615C117.082 53.0595 117.06 52.9503 117.06 52.84V16.35C117.06 16.2371 117.083 16.1254 117.127 16.0215C117.171 15.9175 117.235 15.8236 117.317 15.7452C117.398 15.6668 117.494 15.6055 117.599 15.5651C117.705 15.5247 117.817 15.506 117.93 15.51Z" fill="black" stroke="black" stroke-width="0.25" stroke-miterlimit="10"/>
<path d="M176.08 31.82C178.52 31.63 183.77 31.25 186.2 31.09C186.411 31.0772 186.61 30.9842 186.755 30.8299C186.9 30.6756 186.98 30.4717 186.98 30.26V27C186.98 21.58 183.25 18.17 177.07 18.14C172.13 18.14 168.37 20.32 167.18 23.93C167.128 24.1028 167.022 24.2547 166.878 24.3642C166.735 24.4736 166.56 24.5352 166.38 24.54H164.38C164.252 24.539 164.126 24.5092 164.011 24.4526C163.896 24.396 163.795 24.3141 163.716 24.2132C163.637 24.1122 163.582 23.9947 163.555 23.8695C163.528 23.7442 163.53 23.6145 163.56 23.49C164.9 18.26 170.31 14.97 177.21 14.97C183.68 14.97 190.5 18.38 190.5 27.28V52.88C190.497 53.101 190.408 53.3121 190.25 53.4675C190.093 53.6229 189.881 53.71 189.66 53.71H187.82C187.71 53.7113 187.601 53.6908 187.499 53.6497C187.397 53.6086 187.305 53.5476 187.227 53.4704C187.148 53.3932 187.086 53.3013 187.044 53.1999C187.002 53.0986 186.98 52.9898 186.98 52.88V47.08H186.7C185.619 49.3732 183.891 51.3003 181.729 52.624C179.566 53.9476 177.064 54.6102 174.53 54.53C167.86 54.53 162.3 50.42 162.3 43.14C162.3 36.39 167.19 32.52 176.08 31.82ZM175 51.29C182.1 51.29 187 45.74 187 38.43V35C187 34.8857 186.977 34.7727 186.932 34.6678C186.886 34.563 186.82 34.4687 186.736 34.3908C186.653 34.3129 186.554 34.2531 186.446 34.2151C186.338 34.1771 186.224 34.1617 186.11 34.17C183.61 34.33 178.59 34.73 176.8 34.85C168.89 35.45 165.87 38.68 165.8 43.29C165.85 48.27 169.75 51.29 175 51.29Z" fill="black" stroke="black" stroke-width="0.25" stroke-miterlimit="10"/>
<path d="M199.43 34.7C199.43 23.34 206.25 14.94 216.02 14.94C223.02 14.94 228.66 19.26 230.1 25.79C230.122 25.911 230.117 26.0353 230.086 26.1543C230.055 26.2732 229.999 26.3841 229.921 26.4791C229.843 26.5742 229.745 26.6512 229.634 26.7049C229.524 26.7586 229.403 26.7876 229.28 26.79H227.38C227.19 26.7864 227.006 26.7196 226.857 26.6001C226.709 26.4807 226.604 26.3153 226.56 26.13C225.992 23.8008 224.643 21.7366 222.738 20.281C220.833 18.8254 218.487 18.0663 216.09 18.13C208.46 18.18 203 25 203 34.63C203 44.26 208.24 51.22 216.08 51.22C218.491 51.3081 220.859 50.5597 222.782 49.1017C224.705 47.6437 226.064 45.5657 226.63 43.22C226.669 43.0338 226.771 42.8667 226.918 42.7466C227.066 42.6264 227.25 42.5606 227.44 42.56H229.34C229.464 42.561 229.586 42.589 229.698 42.642C229.809 42.695 229.908 42.7719 229.987 42.8671C230.066 42.9623 230.124 43.0737 230.155 43.1934C230.187 43.3131 230.192 43.4382 230.17 43.56C228.77 50.04 223.33 54.56 216.08 54.48C206.14 54.49 199.46 46.09 199.43 34.7Z" fill="black" stroke="black" stroke-width="0.25" stroke-miterlimit="10"/>
<path d="M237 34.77C237 23.31 243.86 14.94 253.46 14.94C262 14.94 269.46 21.73 269.46 33.51V34.63C269.457 34.8537 269.367 35.0673 269.208 35.2246C269.048 35.3818 268.834 35.47 268.61 35.47H241.43C241.316 35.4713 241.204 35.4952 241.099 35.5402C240.995 35.5853 240.9 35.6506 240.821 35.7325C240.742 35.8143 240.68 35.9111 240.639 36.0171C240.597 36.1231 240.577 36.2362 240.58 36.35C241 45.1 246.06 51.22 254.13 51.22C256.187 51.296 258.228 50.8296 260.048 49.8678C261.868 48.906 263.404 47.4824 264.5 45.74C264.575 45.6133 264.682 45.5081 264.81 45.4345C264.938 45.361 265.083 45.3215 265.23 45.32H267.23C267.373 45.32 267.514 45.3561 267.639 45.4249C267.764 45.4937 267.87 45.593 267.947 45.7137C268.024 45.8343 268.069 45.9724 268.078 46.1151C268.087 46.2577 268.061 46.4005 268 46.53C266 50.79 261.05 54.53 254.08 54.46C243.69 54.49 237 46.23 237 34.77ZM265 32.31C265.113 32.31 265.226 32.2874 265.33 32.2434C265.434 32.1995 265.529 32.1351 265.608 32.054C265.687 31.973 265.75 31.8769 265.791 31.7714C265.833 31.666 265.853 31.5533 265.85 31.44C265.44 23.92 260.3 18.18 253.43 18.18C246.56 18.18 241.43 23.96 240.66 31.4C240.652 31.5166 240.668 31.6336 240.707 31.7437C240.746 31.8539 240.807 31.9548 240.887 32.0402C240.966 32.1256 241.063 32.1937 241.17 32.2401C241.277 32.2865 241.393 32.3103 241.51 32.31H265Z" fill="black" stroke="black" stroke-width="0.25" stroke-miterlimit="10"/>
</g>
<defs>
<clipPath id="clip0_245_698">
<rect width="269.58" height="54.78" fill="white"/>
</clipPath>
</defs>
</svg>
