<svg viewBox="0 0 258 56" fill="none" xmlns="http://www.w3.org/2000/svg">
<path d="M149.392 53.2202C149.384 53.011 149.299 52.813 149.155 52.6678C149.011 52.5226 148.818 52.4415 148.618 52.4417H143.059C142.722 52.4834 142.38 52.4553 142.054 52.3589C141.727 52.2626 141.422 52.0999 141.156 51.8801C140.89 51.6604 140.668 51.3879 140.502 51.0783C140.337 50.7688 140.232 50.4282 140.193 50.076V50.076C140.145 49.5284 140.256 48.9782 140.511 48.4975C140.767 48.0167 141.155 47.6276 141.626 47.381C141.988 47.1772 142.26 46.8342 142.385 46.4244C142.51 46.0146 142.477 45.5702 142.294 45.1851C142.223 44.9795 142.089 44.8041 141.912 44.686C141.721 44.4864 141.501 44.2868 141.282 44.0871C141.204 44.0229 141.139 43.9433 141.091 43.8529C141.042 43.7624 141.012 43.6629 141 43.56C140.988 43.4571 140.996 43.3529 141.024 43.2532C141.051 43.1536 141.096 43.0604 141.158 42.9792C141.429 42.6608 141.621 42.2777 141.718 41.8635C141.815 41.4493 141.812 41.0167 141.712 40.6036C141.565 40.2044 141.327 39.8487 141.019 39.5669C140.711 39.2852 140.342 39.086 139.944 38.9866C139.792 38.934 139.659 38.8324 139.564 38.6962C139.47 38.56 139.419 38.3961 139.419 38.228V35.6727L140.279 35.5729C140.608 35.5729 140.924 35.4362 141.157 35.1928C141.39 34.9495 141.521 34.6194 141.521 34.2753C141.521 33.9312 141.39 33.6011 141.157 33.3578C140.924 33.1144 140.608 32.9777 140.279 32.9777H135.216C135.407 32.5784 135.598 32.3788 135.694 32.1792L142.189 22.4971C142.858 21.499 142.953 21.0997 142.189 20.3012C140.565 18.5045 140.661 16.8076 141.712 14.8113C144.07 10.1584 147.693 6.33833 152.124 3.83167C152.556 3.5979 152.971 3.33099 153.365 3.03315C153.596 2.82743 153.744 2.5384 153.779 2.22383C153.814 1.90925 153.735 1.5923 153.556 1.3363C153.423 1.1325 153.228 0.981985 153.002 0.90944C152.777 0.836895 152.534 0.846625 152.315 0.937035C151.084 1.49506 149.901 2.16297 148.78 2.93334C144.53 5.88631 141.129 9.99237 138.942 14.8113C138.432 15.79 138.223 16.9087 138.342 18.0157C138.462 19.1228 138.905 20.1646 139.61 20.9999C139.726 21.1153 139.823 21.2502 139.897 21.3991C139.706 21.5988 139.61 21.8982 139.419 22.0978C137.413 25.0923 135.407 28.0868 133.306 31.181C133.092 31.4548 132.932 31.7699 132.835 32.1083C132.738 32.4468 132.706 32.8019 132.741 33.1533C132.775 33.5048 132.876 33.8456 133.037 34.1563C133.198 34.467 133.416 34.7415 133.678 34.964C133.896 35.1859 134.156 35.3561 134.442 35.4631C134.816 35.5747 135.201 35.6417 135.589 35.6627H135.703L136.993 37.2099C136.678 39.6853 136.668 40.3241 138.149 41.0627C138.24 41.1112 138.322 41.1783 138.388 41.26C138.454 41.3417 138.505 41.4364 138.536 41.5386C138.567 41.6407 138.578 41.7484 138.569 41.8552C138.56 41.962 138.531 42.0658 138.483 42.1607V42.2306C138.188 42.6956 138.068 43.2574 138.143 43.8094C138.219 44.3614 138.486 44.8652 138.894 45.225C139.014 45.3744 139.08 45.5636 139.08 45.759C139.08 45.9545 139.014 46.1436 138.894 46.293C138.118 47.2586 137.69 48.4763 137.681 49.7367C137.683 51.1218 138.204 52.451 139.132 53.4398C140.061 54.4285 141.322 54.9982 142.648 55.0269H148.627C148.832 55.0243 149.027 54.9383 149.172 54.7872C149.316 54.6361 149.399 54.432 149.401 54.2184V53.2202H149.392Z" fill="#009FE8" stroke="#009FE8" stroke-width="0.5" stroke-miterlimit="10"/>
<path d="M2.8126 4.08121C3.49029 4.09798 4.13681 4.38208 4.62231 4.87644C5.10781 5.37079 5.39633 6.03879 5.42991 6.74627C5.38934 7.45214 5.0924 8.1152 4.59975 8.6C4.10709 9.08481 3.45589 9.35478 2.77916 9.35478C2.10243 9.35478 1.45124 9.08481 0.95858 8.6C0.465926 8.1152 0.168987 7.45214 0.128418 6.74627C0.160447 6.02603 0.457619 5.34659 0.957833 4.84994C1.45805 4.35328 2.12259 4.07785 2.8126 4.08121V4.08121ZM1.85737 16.059H3.6723C3.77767 16.0577 3.88226 16.0781 3.98009 16.119C4.07793 16.1599 4.16709 16.2206 4.24249 16.2975C4.31788 16.3745 4.37804 16.4662 4.41952 16.5674C4.461 16.6686 4.48299 16.7774 4.48424 16.8875V53.35C4.48176 53.5715 4.39642 53.7833 4.24648 53.94C4.09654 54.0967 3.89389 54.1858 3.68185 54.1884H1.91469C1.80932 54.1884 1.70498 54.1667 1.60763 54.1246C1.51028 54.0825 1.42182 54.0207 1.34731 53.9428C1.2728 53.865 1.2137 53.7726 1.17338 53.6708C1.13305 53.5691 1.1123 53.4601 1.1123 53.35V53.35V16.9274C1.11102 16.8169 1.1309 16.7073 1.17077 16.605C1.21064 16.5027 1.26969 16.4097 1.34446 16.3316C1.41922 16.2534 1.50819 16.1917 1.60612 16.1501C1.70405 16.1084 1.80896 16.0876 1.91469 16.089V16.089L1.85737 16.059Z" fill="white" stroke="white" stroke-width="0.25" stroke-miterlimit="10"/>
<path d="M17.5899 54.1884H15.8323C15.6211 54.1884 15.4185 54.1014 15.2683 53.9463C15.1181 53.7912 15.0324 53.5805 15.0299 53.3599V16.9174C15.0324 16.6967 15.1181 16.486 15.2683 16.331C15.4185 16.1759 15.6211 16.0889 15.8323 16.0889H17.523C17.7342 16.0889 17.9369 16.1759 18.0871 16.331C18.2373 16.486 18.3229 16.6967 18.3254 16.9174V22.1178H18.6598C20.341 18.1251 24.2001 15.5898 29.406 15.5898C36.7995 15.5898 41.8239 20.6505 41.8239 29.2046V53.3599C41.8214 53.5805 41.7358 53.7912 41.5856 53.9463C41.4354 54.1014 41.2327 54.1884 41.0216 54.1884H39.2735C39.0623 54.1884 38.8597 54.1014 38.7095 53.9463C38.5593 53.7912 38.4736 53.5805 38.4711 53.3599V29.4043C38.4711 22.9861 34.5833 18.8139 28.6705 18.8139C22.7577 18.8139 18.3923 23.1259 18.3923 29.7935V53.3599C18.3898 53.5805 18.3041 53.7912 18.1539 53.9463C18.0037 54.1014 17.8011 54.1884 17.5899 54.1884Z" fill="white" stroke="white" stroke-width="0.25" stroke-miterlimit="10"/>
<path d="M64.8639 19.1733H58.8269C58.6116 19.1733 58.4051 19.2627 58.2528 19.4218C58.1005 19.5809 58.015 19.7967 58.015 20.0217V44.8557C58.015 49.5271 60.8807 51.3837 63.9947 51.3837H65.781C65.8838 51.3783 65.9867 51.3942 66.0837 51.4304C66.1808 51.4667 66.27 51.5225 66.3463 51.5949C66.4226 51.6672 66.4845 51.7545 66.5284 51.8519C66.5724 51.9492 66.5976 52.0547 66.6024 52.1622C66.6069 52.1819 66.6069 52.2024 66.6024 52.2221V53.889C66.6015 54.0987 66.5271 54.3007 66.3934 54.457C66.2596 54.6133 66.0758 54.7131 65.8765 54.7374C65.3224 54.7374 64.6442 54.8273 63.7177 54.8572C59.0848 54.8572 54.6526 51.5533 54.6526 45.5944V20.0217C54.6501 19.7975 54.5638 19.5832 54.412 19.4247C54.2603 19.2661 54.0552 19.1759 53.8407 19.1733H50.0962C49.8808 19.1733 49.6743 19.0839 49.522 18.9248C49.3698 18.7657 49.2842 18.5499 49.2842 18.3249V16.9275C49.283 16.817 49.3028 16.7074 49.3427 16.605C49.3826 16.5027 49.4416 16.4097 49.5164 16.3316C49.5912 16.2535 49.6801 16.1918 49.7781 16.1501C49.876 16.1085 49.9809 16.0877 50.0866 16.089H53.8502C54.0648 16.0864 54.2699 15.9962 54.4216 15.8377C54.5733 15.6791 54.6597 15.4648 54.6621 15.2406V7.80436C54.6621 7.69294 54.6831 7.58262 54.724 7.47968C54.7648 7.37675 54.8246 7.28322 54.9 7.20443C54.9754 7.12565 55.0649 7.06315 55.1634 7.02052C55.2619 6.97788 55.3675 6.95593 55.4741 6.95593H57.2126C57.4263 6.95856 57.6303 7.04911 57.7806 7.20793C57.9308 7.36676 58.015 7.58106 58.015 7.80436V15.2406C58.015 15.4656 58.1005 15.6814 58.2528 15.8405C58.4051 15.9996 58.6116 16.089 58.8269 16.089H64.8639C64.9693 16.0877 65.0739 16.1081 65.1717 16.149C65.2696 16.1899 65.3587 16.2506 65.4341 16.3275C65.5095 16.4045 65.5697 16.4961 65.6112 16.5974C65.6526 16.6986 65.6746 16.8074 65.6759 16.9175V18.3149C65.6759 18.5408 65.5907 18.7577 65.4387 18.9184C65.2867 19.0791 65.0802 19.1707 64.8639 19.1733V19.1733Z" fill="white" stroke="white" stroke-width="0.25" stroke-miterlimit="10"/>
<path d="M72.3624 35.3134C72.3624 23.8745 78.9057 15.52 88.0759 15.52C96.2335 15.52 103.359 22.2975 103.359 34.0557V35.1636C103.357 35.3879 103.271 35.6022 103.119 35.7607C102.967 35.9193 102.762 36.0095 102.547 36.0121H76.6227C76.514 36.0121 76.4064 36.0346 76.3061 36.0784C76.2058 36.1221 76.1148 36.1862 76.0384 36.267C75.962 36.3478 75.9017 36.4436 75.861 36.5489C75.8203 36.6542 75.8 36.7669 75.8012 36.8805V36.8805C76.1929 45.6043 81.0359 51.713 88.735 51.713C90.7007 51.7845 92.6502 51.3173 94.3896 50.3577C96.129 49.3981 97.5979 47.9796 98.6502 46.2431C98.7201 46.1146 98.8216 46.0079 98.9442 45.9342C99.0668 45.8605 99.206 45.8224 99.3475 45.8239H101.258C101.473 45.8238 101.679 45.9115 101.832 46.0682C101.986 46.2249 102.074 46.4382 102.079 46.6623C102.077 46.7894 102.051 46.9148 102.003 47.0317C100.093 51.2838 95.3738 55.0169 88.7063 54.947C78.772 54.9969 72.3911 46.7522 72.3624 35.3134ZM99.1087 32.8579C99.3233 32.8553 99.5283 32.7651 99.6801 32.6065C99.8318 32.448 99.9182 32.2337 99.9206 32.0095V32.0095C99.529 24.5034 94.6191 18.784 88.0568 18.784C81.4944 18.784 76.6227 24.5633 75.8872 31.9396C75.878 32.0498 75.8898 32.1608 75.9219 32.2662C75.954 32.3716 76.0057 32.4693 76.074 32.5537C76.1424 32.6382 76.2261 32.7076 76.3203 32.7581C76.4144 32.8086 76.5172 32.8391 76.6227 32.8479H99.1087V32.8579Z" fill="white" stroke="white" stroke-width="0.25" stroke-miterlimit="10"/>
<path d="M112.654 16.0889H114.335C114.44 16.0876 114.545 16.108 114.643 16.1489C114.741 16.1898 114.83 16.2505 114.905 16.3274C114.981 16.4044 115.041 16.4961 115.082 16.5973C115.124 16.6985 115.146 16.8073 115.147 16.9174V16.9174V22.0379H115.414C116.952 18.1052 120.983 15.51 125.683 15.51H126.638C126.844 15.5203 127.039 15.6131 127.181 15.7693C127.323 15.9254 127.403 16.1328 127.402 16.3485V18.1551C127.402 18.2639 127.382 18.3716 127.342 18.4722C127.302 18.5727 127.244 18.664 127.17 18.7409C127.097 18.8179 127.009 18.8789 126.913 18.9205C126.817 18.9621 126.714 18.9836 126.61 18.9836H126.505C126.199 18.9836 125.845 18.9237 125.454 18.9237C119.512 18.9237 115.185 23.2756 115.185 29.2346V53.3499C115.183 53.5715 115.097 53.7833 114.947 53.9399C114.797 54.0966 114.595 54.1858 114.383 54.1884H112.625C112.52 54.1884 112.415 54.1667 112.318 54.1246C112.221 54.0824 112.132 54.0207 112.058 53.9428C111.983 53.865 111.924 53.7725 111.884 53.6708C111.843 53.5691 111.823 53.46 111.823 53.3499V16.9274C111.82 16.8174 111.839 16.708 111.878 16.6057C111.916 16.5034 111.975 16.4103 112.049 16.3321C112.123 16.2538 112.211 16.1919 112.308 16.1502C112.406 16.1084 112.51 16.0876 112.616 16.0889H112.654Z" fill="white" stroke="white" stroke-width="0.25" stroke-miterlimit="10"/>
<path d="M168.2 32.3688C170.531 32.1791 175.546 31.7998 177.867 31.6401C178.068 31.6251 178.256 31.5315 178.394 31.378C178.532 31.2245 178.61 31.0223 178.612 30.8117V27.5577C178.612 22.1477 175.049 18.744 169.146 18.7141C164.427 18.7141 160.835 20.89 159.699 24.4934C159.647 24.6651 159.546 24.8159 159.409 24.9249C159.272 25.034 159.106 25.096 158.934 25.1022H157.024C156.808 25.0996 156.601 25.008 156.449 24.8473C156.297 24.6866 156.212 24.4698 156.212 24.2438C156.202 24.181 156.202 24.117 156.212 24.0542C157.492 18.8338 162.66 15.5499 169.251 15.5499C175.431 15.5499 181.946 18.9536 181.946 27.8372V53.3899C181.943 53.6105 181.858 53.8212 181.707 53.9763C181.557 54.1314 181.355 54.2183 181.143 54.2183H179.386C179.282 54.2196 179.178 54.1995 179.082 54.1591C178.985 54.1187 178.897 54.0587 178.822 53.9827C178.748 53.9067 178.688 53.8161 178.647 53.7161C178.606 53.6161 178.585 53.5086 178.583 53.3998V53.3998V47.6106H178.316C177.283 49.8995 175.632 51.8231 173.567 53.1443C171.502 54.4655 169.111 55.1268 166.691 55.0468C160.319 55.0468 155.008 50.9444 155.008 43.6778C155.037 36.9303 159.708 33.0675 168.2 32.3688ZM167.168 51.8028C173.951 51.8028 178.631 46.263 178.631 38.9666V35.5429C178.631 35.3222 178.548 35.1105 178.399 34.9535C178.251 34.7966 178.049 34.7071 177.838 34.7045H177.781C175.393 34.8642 170.598 35.2634 168.888 35.3832C161.332 35.9821 158.447 39.2061 158.38 43.8076C158.428 48.7884 162.153 51.8028 167.168 51.8028Z" fill="white" stroke="white" stroke-width="0.25" stroke-miterlimit="10"/>
<path d="M190.505 35.2435C190.505 23.9045 197.019 15.52 206.352 15.52C213.038 15.52 218.426 19.832 219.801 26.35C219.822 26.4608 219.821 26.5749 219.799 26.6855C219.777 26.796 219.734 26.9009 219.673 26.9939C219.611 27.0868 219.533 27.166 219.442 27.2269C219.35 27.2877 219.249 27.3289 219.142 27.3481H219.018H217.203C217.021 27.3445 216.845 27.2778 216.704 27.1586C216.562 27.0393 216.462 26.8743 216.42 26.6893C215.877 24.3645 214.588 22.3041 212.769 20.8511C210.949 19.3982 208.708 18.6405 206.419 18.7041C199.13 18.754 193.915 25.5614 193.915 35.1736C193.915 44.7858 198.92 51.733 206.409 51.733C208.712 51.819 210.973 51.0712 212.809 49.6162C214.645 48.1612 215.944 46.0882 216.487 43.7477C216.522 43.5611 216.619 43.3931 216.76 43.2729C216.901 43.1527 217.078 43.0876 217.26 43.089H219.075C219.289 43.0916 219.493 43.1821 219.643 43.341C219.793 43.4998 219.878 43.7141 219.878 43.9374C219.878 43.9873 219.878 44.0372 219.878 44.0871C218.54 50.5551 213.344 55.0668 206.419 54.9869C196.914 54.9969 190.533 46.6124 190.505 35.2435Z" fill="white" stroke="white" stroke-width="0.25" stroke-miterlimit="10"/>
<path d="M226.392 35.3134C226.392 23.8745 232.945 15.52 242.115 15.52C250.273 15.52 257.399 22.2975 257.399 34.0557V35.1736C257.394 35.3961 257.307 35.6079 257.155 35.7643C257.004 35.9207 256.8 36.0095 256.587 36.0121H230.624C230.515 36.0121 230.408 36.0346 230.307 36.0784C230.207 36.1221 230.116 36.1862 230.04 36.267C229.963 36.3478 229.903 36.4436 229.862 36.5489C229.822 36.6542 229.801 36.7669 229.802 36.8805V36.8805C230.204 45.6143 235.037 51.723 242.746 51.723C244.71 51.7947 246.658 51.3275 248.396 50.3679C250.134 49.4082 251.601 47.9895 252.651 46.2531C252.722 46.1253 252.824 46.0192 252.946 45.9456C253.069 45.872 253.207 45.8334 253.349 45.8339H255.259C255.474 45.8365 255.679 45.9267 255.831 46.0852C255.982 46.2438 256.069 46.4581 256.071 46.6823C256.069 46.8062 256.043 46.9283 255.995 47.0416C254.084 51.2938 249.356 55.0269 242.698 54.957C232.783 54.9969 226.392 46.7522 226.392 35.3134ZM253.139 32.8579C253.353 32.8553 253.558 32.7651 253.71 32.6065C253.862 32.448 253.948 32.2337 253.951 32.0095V32.0095C253.559 24.5034 248.649 18.774 242.087 18.774C235.524 18.774 230.624 24.5433 229.888 31.9696C229.879 32.08 229.892 32.1912 229.924 32.2967C229.957 32.4021 230.01 32.4996 230.079 32.5833C230.149 32.6671 230.234 32.7355 230.329 32.7843C230.424 32.8332 230.528 32.8616 230.634 32.8679H253.139V32.8579Z" fill="white" stroke="white" stroke-width="0.25" stroke-miterlimit="10"/>
</svg>
