<svg xmlns="http://www.w3.org/2000/svg" viewBox="0 0 852.3 359.7"><defs><style>.cls-1,.cls-2{fill:#009fe8;}.cls-1{opacity:0.8;}.cls-1,.cls-2,.cls-3{isolation:isolate;}.cls-2{opacity:0.2;}.cls-3,.cls-4{fill:#fff;}.cls-3{opacity:0.3;}.cls-5{fill:#bfbfbf;}</style></defs><g id="레이어_2" data-name="레이어 2"><g id="레이어_1-2" data-name="레이어 1"><path class="cls-1" d="M13.3,0H359.7A13.29,13.29,0,0,1,373,13.3V236.7A13.29,13.29,0,0,1,359.7,250H13.3A13.29,13.29,0,0,1,0,236.7V13.3A13.29,13.29,0,0,1,13.3,0Z"/><path class="cls-2" d="M12.5,266.3H99.9a12.42,12.42,0,0,1,12.4,12.5v66.6a12.48,12.48,0,0,1-12.4,12.5H12.5A12.42,12.42,0,0,1,.1,345.4V278.8A12.29,12.29,0,0,1,12.5,266.3Z"/><path class="cls-2" d="M143.2,266.3h87.4A12.42,12.42,0,0,1,243,278.8v66.6a12.48,12.48,0,0,1-12.4,12.5H143.2a12.42,12.42,0,0,1-12.4-12.5V278.8A12.42,12.42,0,0,1,143.2,266.3Z"/><path class="cls-2" d="M273.2,266.3h87.4A12.42,12.42,0,0,1,373,278.8v66.6a12.48,12.48,0,0,1-12.4,12.5H273.2a12.42,12.42,0,0,1-12.4-12.5V278.8A12.29,12.29,0,0,1,273.2,266.3Z"/><path class="cls-2" d="M618.6,281.8H839c7.3,0,13.3,4.3,13.3,9.7V350c0,5.4-5.9,9.7-13.3,9.7H618.6c-7.3,0-13.3-4.3-13.3-9.7V291.5C605.4,286.1,611.3,281.8,618.6,281.8Z"/><path class="cls-1" d="M618.6,106.8H839a13.29,13.29,0,0,1,13.3,13.3v80.2A13.29,13.29,0,0,1,839,213.6H618.6a13.29,13.29,0,0,1-13.3-13.3V120.1A13.42,13.42,0,0,1,618.6,106.8Z"/><path class="cls-3" d="M630,127.8H816.8a3.12,3.12,0,0,1,3.1,3.1v2.7a3.12,3.12,0,0,1-3.1,3.1H630a3.12,3.12,0,0,1-3.1-3.1v-2.7A3,3,0,0,1,630,127.8Z"/><path class="cls-3" d="M630,143.1h90.3a3.12,3.12,0,0,1,3.1,3.1v2.7a3.12,3.12,0,0,1-3.1,3.1H630a3.12,3.12,0,0,1-3.1-3.1v-2.7A3,3,0,0,1,630,143.1Z"/><path class="cls-3" d="M630,158.4H771.4a3.12,3.12,0,0,1,3.1,3.1v2.7a3.12,3.12,0,0,1-3.1,3.1H630a3.12,3.12,0,0,1-3.1-3.1v-2.7A3,3,0,0,1,630,158.4Z"/><path class="cls-3" d="M731,143.1h22.1a3.12,3.12,0,0,1,3.1,3.1v2.7a3.12,3.12,0,0,1-3.1,3.1H731a3.12,3.12,0,0,1-3.1-3.1v-2.7A3.12,3.12,0,0,1,731,143.1Z"/><path class="cls-3" d="M630.5,186.9h22.1a3.12,3.12,0,0,1,3.1,3.1v2.7a3.12,3.12,0,0,1-3.1,3.1H630.5a3.12,3.12,0,0,1-3.1-3.1V190A3.12,3.12,0,0,1,630.5,186.9Z"/><path class="cls-3" d="M663.4,186.9H799.7a3.12,3.12,0,0,1,3.1,3.1v2.7a3.12,3.12,0,0,1-3.1,3.1H663.4a3.12,3.12,0,0,1-3.1-3.1V190A3.12,3.12,0,0,1,663.4,186.9Z"/><path class="cls-3" d="M629.9,173.4H710a3.12,3.12,0,0,1,3.1,3.1v2.7a3.12,3.12,0,0,1-3.1,3.1H629.9a3.12,3.12,0,0,1-3.1-3.1v-2.7A3.12,3.12,0,0,1,629.9,173.4Z"/><path class="cls-3" d="M720.4,173.4h19.2a3.12,3.12,0,0,1,3.1,3.1v2.7a3.12,3.12,0,0,1-3.1,3.1H720.4a3.12,3.12,0,0,1-3.1-3.1v-2.7A3.12,3.12,0,0,1,720.4,173.4Z"/><circle class="cls-1" cx="492.3" cy="169" r="45.9"/><path class="cls-4" d="M514.7,145.7a12.07,12.07,0,0,0-17.2,0h0l-5.8,5.8a2.16,2.16,0,0,0,0,3.4h0a2.16,2.16,0,0,0,3.4,0l5.8-5.8h0a7.37,7.37,0,0,1,10.3-.5c3.2,2.7,3.2,7.2.5,10.3l-.5.5-11.1,11.1a7,7,0,0,1-8.8,1.1c-1.3-.3-2.4-.3-3.2.5h0a2.16,2.16,0,0,0,0,3.4c.3.3.3.3.5.3a12.13,12.13,0,0,0,14.9-1.9L514.7,163a12.77,12.77,0,0,0,0-17.3Z"/><path class="cls-4" d="M482.3,188.5h0a7.29,7.29,0,1,1-10.8-9.8l.5-.5,11.1-11.1a7,7,0,0,1,8.8-1.1,2.39,2.39,0,0,0,2.9-.3h0a2.16,2.16,0,0,0,0-3.4c-.3-.3-.3-.3-.5-.3a12.13,12.13,0,0,0-14.9,1.9L468.3,175a12.16,12.16,0,1,0,17.2,17.2h0l5.8-5.8a2.16,2.16,0,0,0,0-3.4h0a2.16,2.16,0,0,0-3.4,0Z"/><circle class="cls-5" cx="401.7" cy="165.9" r="3.1"/><circle class="cls-5" cx="411.1" cy="165.9" r="3.1"/><circle class="cls-5" cx="420.9" cy="165.9" r="3.1"/><circle class="cls-5" cx="563.8" cy="165.9" r="3.1"/><circle class="cls-5" cx="573.2" cy="165.9" r="3.1"/><circle class="cls-5" cx="583" cy="165.9" r="3.1"/><path class="cls-2" d="M841.4,272.7h-227a10,10,0,0,1-10-10V232.6a10,10,0,0,1,10-10h227a10,10,0,0,1,10,10v30.1A10,10,0,0,1,841.4,272.7Z"/><path class="cls-2" d="M841.4,99h-227a10,10,0,0,1-10-10V10a10,10,0,0,1,10-10h227a10,10,0,0,1,10,10V89A10,10,0,0,1,841.4,99Z"/></g></g></svg>