<svg width="893" height="462" viewBox="0 0 893 462" fill="none" xmlns="http://www.w3.org/2000/svg">
<path d="M463.93 18.17L613.29 344.63" stroke="#0090DD" stroke-width="3" stroke-miterlimit="10" stroke-linecap="round"/>
<path opacity="0.3" d="M489.473 58.3389L679.909 169.37C686.245 173.064 694.376 170.922 698.07 164.586L711.891 140.881C715.585 134.545 713.444 126.414 707.107 122.719L516.671 11.6888C510.335 7.99462 502.204 10.1363 498.51 16.4724L484.689 40.1776C480.995 46.5137 483.136 54.6448 489.473 58.3389Z" fill="#0090DD"/>
<path d="M735.908 206.908L671.264 254.307C665.349 258.644 664.07 266.954 668.407 272.869L798.755 450.642C803.092 456.557 811.402 457.836 817.317 453.499L881.962 406.099C887.876 401.763 889.156 393.452 884.819 387.537L754.47 209.765C750.133 203.85 741.823 202.571 735.908 206.908Z" fill="#0090DD"/>
<path opacity="0.3" d="M762.005 119.453L584.028 249.522C578.106 253.85 576.814 262.158 581.142 268.08L597.332 290.234C601.66 296.156 609.969 297.448 615.89 293.12L793.867 163.051C799.789 158.724 801.081 150.415 796.753 144.494L780.563 122.339C776.235 116.418 767.927 115.126 762.005 119.453Z" fill="#0090DD"/>
<path opacity="0.3" d="M712.94 346.8H492.5C485.166 346.8 479.22 352.746 479.22 360.08V440.24C479.22 447.574 485.166 453.52 492.5 453.52H712.94C720.274 453.52 726.22 447.574 726.22 440.24V360.08C726.22 352.746 720.274 346.8 712.94 346.8Z" fill="#0090DD"/>
<path opacity="0.8" d="M561 345H569.04" stroke="#0090DD" stroke-width="3" stroke-miterlimit="10" stroke-linecap="round"/>
<path d="M163.449 116.837L95.6643 329.747C93.4393 336.736 97.3011 344.205 104.29 346.43L434.403 451.529C441.392 453.754 448.861 449.892 451.086 442.903L518.871 229.993C521.096 223.005 517.234 215.536 510.245 213.311L180.132 108.212C173.143 105.987 165.674 109.848 163.449 116.837Z" fill="#0090DD"/>
<path opacity="0.3" d="M400.86 95.4708L380.772 158.948C378.698 165.504 382.33 172.5 388.886 174.574L472.213 200.943C478.769 203.018 485.765 199.385 487.839 192.83L507.927 129.352C510.001 122.797 506.368 115.801 499.813 113.726L416.486 87.3572C409.93 85.2827 402.934 88.9153 400.86 95.4708Z" fill="#0090DD"/>
<path opacity="0.3" d="M360.821 32.0443L277.116 57.1889C270.531 59.167 266.796 66.1091 268.774 72.6943L287.929 136.459C289.907 143.045 296.849 146.779 303.434 144.801L387.139 119.657C393.724 117.679 397.459 110.737 395.481 104.151L376.326 40.3862C374.348 33.8009 367.406 30.0662 360.821 32.0443Z" fill="#0090DD"/>
<path opacity="0.3" d="M147.42 361.17H60.0201C53.1441 361.17 47.5701 366.744 47.5701 373.62V440.2C47.5701 447.076 53.1441 452.65 60.0201 452.65H147.42C154.296 452.65 159.87 447.076 159.87 440.2V373.62C159.87 366.744 154.296 361.17 147.42 361.17Z" fill="#0090DD"/>
<path opacity="0.8" d="M85.59 355.62L92.54 359.66" stroke="#0090DD" stroke-width="3" stroke-miterlimit="10" stroke-linecap="round"/>
<path opacity="0.8" d="M78.54 359.66H86.58" stroke="#0090DD" stroke-width="3" stroke-miterlimit="10" stroke-linecap="round"/>
<path opacity="0.8" d="M28.4401 451.02H36.4801" stroke="#0090DD" stroke-width="3" stroke-miterlimit="10" stroke-linecap="round"/>
<path opacity="0.7" d="M336.57 3.4094L335.128 5.65221C334.197 7.09964 334.616 9.02732 336.064 9.95781L492.968 110.824C494.415 111.755 496.343 111.336 497.273 109.888L498.715 107.646C499.645 106.198 499.226 104.27 497.779 103.34L340.875 2.47341C339.428 1.54292 337.5 1.96197 336.57 3.4094Z" fill="#F9F9F9"/>
<path opacity="0.7" d="M515.285 256.485L512.822 257.516C511.232 258.181 510.482 260.008 511.147 261.598L545.987 344.885C546.652 346.474 548.48 347.224 550.069 346.559L552.533 345.529C554.122 344.864 554.872 343.036 554.207 341.446L519.367 258.159C518.702 256.57 516.875 255.82 515.285 256.485Z" fill="#F9F9F9"/>
<path opacity="0.7" d="M57.4576 320.866L1.26757 450.589C0.582677 452.17 1.30925 454.007 2.89042 454.692L5.34047 455.753C6.92164 456.438 8.75864 455.712 9.44353 454.13L65.6336 324.407C66.3185 322.826 65.5919 320.989 64.0108 320.304L61.5607 319.243C59.9795 318.558 58.1425 319.284 57.4576 320.866Z" fill="#F9F9F9"/>
<path opacity="0.7" d="M332.925 150.897L332.182 153.462C331.702 155.117 332.655 156.847 334.31 157.327L355.585 163.491C357.24 163.971 358.97 163.018 359.45 161.363L360.193 158.799C360.673 157.144 359.72 155.413 358.065 154.933L336.79 148.769C335.135 148.289 333.404 149.242 332.925 150.897Z" fill="#F9F9F9"/>
<path opacity="0.7" d="M598.9 337.43H576.75C575.027 337.43 573.63 338.827 573.63 340.55V343.22C573.63 344.943 575.027 346.34 576.75 346.34H598.9C600.623 346.34 602.02 344.943 602.02 343.22V340.55C602.02 338.827 600.623 337.43 598.9 337.43Z" fill="#F9F9F9"/>
<path opacity="0.7" d="M344.95 443.25H208.66C206.937 443.25 205.54 444.647 205.54 446.37V449.04C205.54 450.763 206.937 452.16 208.66 452.16H344.95C346.673 452.16 348.07 450.763 348.07 449.04V446.37C348.07 444.647 346.673 443.25 344.95 443.25Z" fill="#F9F9F9"/>
<path opacity="0.7" d="M255.039 415.294L180.263 444.118C178.655 444.737 177.854 446.543 178.473 448.151L179.434 450.642C180.054 452.25 181.859 453.051 183.467 452.431L258.244 423.607C259.852 422.988 260.653 421.182 260.033 419.574L259.073 417.083C258.453 415.475 256.647 414.674 255.039 415.294Z" fill="#F9F9F9"/>
<path opacity="0.7" d="M591.28 328H572.12C570.397 328 569 329.397 569 331.12V333.79C569 335.513 570.397 336.91 572.12 336.91H591.28C593.003 336.91 594.4 335.513 594.4 333.79V331.12C594.4 329.397 593.003 328 591.28 328Z" fill="#F9F9F9"/>
</svg>
