<svg viewBox="0 0 810 437" fill="none" xmlns="http://www.w3.org/2000/svg">
<g clip-path="url(#clip0_245_718)">
<path d="M433.591 0H16.0071C7.16664 0 0 7.16759 0 16.0093V285.37C0 294.212 7.16664 301.379 16.0071 301.379H433.591C442.432 301.379 449.598 294.212 449.598 285.37V16.0093C449.598 7.16759 442.432 0 433.591 0Z" fill="#009FE8"/>
<path opacity="0.3" d="M120.355 320.981H15.0067C6.71873 320.981 0 327.701 0 335.99V416.253C0 424.542 6.71873 431.262 15.0067 431.262H120.355C128.643 431.262 135.362 424.542 135.362 416.253V335.99C135.362 327.701 128.643 320.981 120.355 320.981Z" fill="#009FE8"/>
<path opacity="0.3" d="M277.955 320.981H172.607C164.319 320.981 157.6 327.701 157.6 335.99V416.253C157.6 424.542 164.319 431.262 172.607 431.262H277.955C286.243 431.262 292.962 424.542 292.962 416.253V335.99C292.962 327.701 286.243 320.981 277.955 320.981Z" fill="#009FE8"/>
<path opacity="0.3" d="M434.592 320.981H329.243C320.955 320.981 314.237 327.701 314.237 335.99V416.253C314.237 424.542 320.955 431.262 329.243 431.262H434.592C442.879 431.262 449.598 424.542 449.598 416.253V335.99C449.598 327.701 442.879 320.981 434.592 320.981Z" fill="#009FE8"/>
<path d="M483.348 2.41113V435.192" stroke="#009FE8" stroke-width="3" stroke-miterlimit="10" stroke-linecap="round"/>
<path opacity="0.3" d="M793.993 0H528.284C519.443 0 512.277 7.16759 512.277 16.0093V49.0887C512.277 57.9303 519.443 65.0979 528.284 65.0979H793.993C802.833 65.0979 810 57.9303 810 49.0887V16.0093C810 7.16759 802.833 0 793.993 0Z" fill="#009FE8"/>
<path d="M793.993 79.5642H528.284C519.443 79.5642 512.277 86.7318 512.277 95.5735V192.208C512.277 201.049 519.443 208.217 528.284 208.217H793.993C802.833 208.217 810 201.049 810 192.208V95.5735C810 86.7318 802.833 79.5642 793.993 79.5642Z" fill="#009FE8"/>
<path d="M478.479 13.2607H488.17" stroke="#009FE8" stroke-width="3" stroke-miterlimit="10" stroke-linecap="round"/>
<path d="M478.479 97.032H488.17" stroke="#009FE8" stroke-width="3" stroke-miterlimit="10" stroke-linecap="round"/>
<path opacity="0.3" d="M793.836 222.972H528.127C519.287 222.972 512.12 230.14 512.12 238.982V272.061C512.12 280.903 519.287 288.07 528.127 288.07H793.836C802.677 288.07 809.843 280.903 809.843 272.061V238.982C809.843 230.14 802.677 222.972 793.836 222.972Z" fill="#009FE8"/>
<path opacity="0.3" d="M793.836 302.537H528.127C519.287 302.537 512.12 309.704 512.12 318.546V415.18C512.12 424.022 519.287 431.189 528.127 431.189H793.836C802.677 431.189 809.843 424.022 809.843 415.18V318.546C809.843 309.704 802.677 302.537 793.836 302.537Z" fill="#009FE8"/>
<path d="M478.37 236.233H488.061" stroke="#009FE8" stroke-width="3" stroke-miterlimit="10" stroke-linecap="round"/>
<path d="M478.37 320.005H488.061" stroke="#009FE8" stroke-width="3" stroke-miterlimit="10" stroke-linecap="round"/>
<g opacity="0.7">
<path d="M767.077 104.88H541.929C539.852 104.88 538.168 106.564 538.168 108.641V111.86C538.168 113.937 539.852 115.621 541.929 115.621H767.077C769.154 115.621 770.838 113.937 770.838 111.86V108.641C770.838 106.564 769.154 104.88 767.077 104.88Z" fill="#F9F9F9"/>
<path d="M650.748 123.312H541.929C539.852 123.312 538.168 124.996 538.168 127.073V130.292C538.168 132.369 539.852 134.053 541.929 134.053H650.748C652.825 134.053 654.509 132.369 654.509 130.292V127.073C654.509 124.996 652.825 123.312 650.748 123.312Z" fill="#F9F9F9"/>
<path d="M712.33 141.745H541.929C539.852 141.745 538.168 143.429 538.168 145.506V148.725C538.168 150.802 539.852 152.486 541.929 152.486H712.33C714.407 152.486 716.091 150.802 716.091 148.725V145.506C716.091 143.429 714.407 141.745 712.33 141.745Z" fill="#F9F9F9"/>
<path d="M690.441 123.312H663.742C661.665 123.312 659.981 124.996 659.981 127.073V130.292C659.981 132.369 661.665 134.053 663.742 134.053H690.441C692.518 134.053 694.201 132.369 694.201 130.292V127.073C694.201 124.996 692.518 123.312 690.441 123.312Z" fill="#F9F9F9"/>
<path d="M569.29 176.114H542.592C540.515 176.114 538.831 177.798 538.831 179.875V183.094C538.831 185.171 540.515 186.855 542.592 186.855H569.29C571.367 186.855 573.051 185.171 573.051 183.094V179.875C573.051 177.798 571.367 176.114 569.29 176.114Z" fill="#F9F9F9"/>
<path d="M746.562 176.114H582.284C580.207 176.114 578.523 177.798 578.523 179.875V183.094C578.523 185.171 580.207 186.855 582.284 186.855H746.562C748.639 186.855 750.323 185.171 750.323 183.094V179.875C750.323 177.798 748.639 176.114 746.562 176.114Z" fill="#F9F9F9"/>
<path d="M638.502 159.84H541.904C539.827 159.84 538.144 161.524 538.144 163.601V166.82C538.144 168.897 539.827 170.581 541.904 170.581H638.502C640.579 170.581 642.263 168.897 642.263 166.82V163.601C642.263 161.524 640.579 159.84 638.502 159.84Z" fill="#F9F9F9"/>
<path d="M674.012 159.84H650.917C648.84 159.84 647.156 161.524 647.156 163.601V166.82C647.156 168.897 648.84 170.581 650.917 170.581H674.012C676.089 170.581 677.772 168.897 677.772 166.82V163.601C677.772 161.524 676.089 159.84 674.012 159.84Z" fill="#F9F9F9"/>
</g>
</g>
<defs>
<clipPath id="clip0_245_718">
<rect width="810" height="437" fill="white"/>
</clipPath>
</defs>
</svg>
