<?xml version="1.0" encoding="utf-8"?>
<!-- Generator: Adobe Illustrator 25.1.0, SVG Export Plug-In . SVG Version: 6.00 Build 0)  -->
<svg version="1.1" id="Capa_1" xmlns="http://www.w3.org/2000/svg" xmlns:xlink="http://www.w3.org/1999/xlink" x="0px" y="0px"
	 viewBox="0 0 477.2 477.2" style="enable-background:new 0 0 477.2 477.2;" xml:space="preserve">
<path d="M155.3,238.5L365.6,37.1c3.9-3.8,6.1-8.8,6.1-14.2c0-5.4-2.2-10.4-6.1-14.2c-8.1-7.8-20.7-7.8-28.8,0L111.6,224.4
	c-3.9,3.8-6.1,8.8-6.1,14.2c0,5.4,2.2,10.4,6.1,14.2l225.1,215.5c3.8,3.7,9,5.8,14.4,5.8c5.5,0,10.6-2.1,14.4-5.8
	c3.9-3.8,6.1-8.8,6.1-14.1c0-5.4-2.2-10.4-6.1-14.2L155.3,238.5z"/>
</svg>
