<?xml version="1.0" encoding="utf-8"?>
<!-- Generator: Adobe Illustrator 25.1.0, SVG Export Plug-In . SVG Version: 6.00 Build 0)  -->
<svg version="1.1" id="레이어_1" xmlns="http://www.w3.org/2000/svg" xmlns:xlink="http://www.w3.org/1999/xlink" x="0px"
	 y="0px" viewBox="0 0 48 48" style="enable-background:new 0 0 48 48;" xml:space="preserve">
<style type="text/css">
	.st0{fill-opacity:1.000000e-02;}
</style>
<g id="编组">
	<rect x="4.4" y="10.1" class="st0" width="48" height="48"/>
	<path d="M24.4,30.7c-3.6,0-6.5-3-6.5-6.6s3-6.5,6.6-6.5c3.6,0,6.5,2.9,6.5,6.5C31,27.8,28.1,30.7,24.4,30.7
		C24.4,30.7,24.4,30.7,24.4,30.7z M24.4,21.6c-1.4,0-2.5,1.2-2.5,2.6c0,1.4,1.2,2.5,2.6,2.5c1.4,0,2.5-1.1,2.5-2.5
		C27,22.8,25.9,21.6,24.4,21.6C24.4,21.6,24.4,21.6,24.4,21.6z"/>
	<path d="M32.4,35.1c-1.1,0-2-0.9-2-2c0-0.6,0.2-1.1,0.6-1.5c4.2-3.7,4.5-10.1,0.8-14.3c-0.2-0.3-0.5-0.5-0.8-0.8
		c-0.8-0.8-0.8-2,0-2.8c0.7-0.7,1.9-0.8,2.7-0.1c5.8,5.2,6.2,14.2,1,19.9c-0.3,0.3-0.6,0.7-1,1C33.4,34.9,32.9,35.1,32.4,35.1z
		 M16.4,35.1c-0.5,0-1-0.2-1.4-0.5c-5.8-5.2-6.2-14.2-1-19.9c0.3-0.3,0.6-0.7,1-1c0.8-0.7,2.1-0.6,2.8,0.2c0.7,0.8,0.6,2-0.1,2.7
		c-4.2,3.7-4.5,10.1-0.8,14.3c0.2,0.3,0.5,0.5,0.8,0.8c0.8,0.8,0.8,2,0.1,2.8C17.5,34.8,17,35.1,16.4,35.1z"/>
	<path d="M10.3,40.3c-0.5,0-1-0.2-1.4-0.6c-8.6-8.5-8.6-22.4,0-31c0,0,0,0,0,0c0.7-0.8,2-0.9,2.8-0.1c0.8,0.7,0.9,2,0.1,2.8
		c0,0-0.1,0.1-0.1,0.1c-7,7-7,18.3-0.1,25.3c0,0,0,0,0.1,0.1c0.8,0.8,0.8,2,0,2.8c0,0,0,0,0,0C11.3,40.1,10.8,40.3,10.3,40.3z
		 M38.6,40.3c-1.1,0-2-0.9-2-2c0-0.5,0.2-1,0.6-1.4c7-7,7-18.3,0.1-25.3c0,0,0,0-0.1-0.1c-0.8-0.8-0.8-2.1,0-2.8s2.1-0.8,2.8,0
		c8.6,8.6,8.6,22.4,0,31c0,0,0,0,0,0C39.6,40,39.1,40.3,38.6,40.3z"/>
</g>
</svg>
