<svg id="레이어_1" data-name="레이어 1" xmlns="http://www.w3.org/2000/svg" viewBox="0 0 48 48"><defs><style>.cls-1{fill:#fff;fill-opacity:0.01;}</style></defs><g id="编组"><rect class="cls-1" x="4.43" y="10.06" width="48" height="48"/><path d="M24.43,30.69A6.53,6.53,0,1,1,31,24.16,6.54,6.54,0,0,1,24.43,30.69Zm0-9.06A2.53,2.53,0,1,0,27,24.16,2.54,2.54,0,0,0,24.43,21.63Z"/><path d="M32.43,35.06a2,2,0,0,1-1.36-3.46,10.13,10.13,0,0,0,0-15.07,2,2,0,0,1,2.72-2.93,14.12,14.12,0,0,1,0,20.93A2,2,0,0,1,32.43,35.06Zm-16,0a2,2,0,0,1-1.36-.53,14.12,14.12,0,0,1,0-20.93,2,2,0,0,1,2.72,2.93,10.13,10.13,0,0,0,0,15.07,2,2,0,0,1-1.36,3.46Z"/><path d="M10.29,40.26a2,2,0,0,1-1.41-.58,21.89,21.89,0,0,1,0-31,2,2,0,1,1,2.82,2.83,17.89,17.89,0,0,0,0,25.36,2,2,0,0,1,0,2.83A2,2,0,0,1,10.29,40.26Zm28.28,0a2,2,0,0,1-1.41-3.42,17.89,17.89,0,0,0,0-25.36A2,2,0,0,1,40,8.65a21.91,21.91,0,0,1,0,31A2,2,0,0,1,38.57,40.26Z"/></g></svg>