<svg id="레이어_1" data-name="레이어 1" xmlns="http://www.w3.org/2000/svg" viewBox="0 0 24 24"><defs><style>.cls-1{fill:#222;}</style></defs><path class="cls-1" d="M2,17l2.3-.94,1.42-.58v.42l1.93-2.2V6.93h5.94L15.25,5H6.61a.92.92,0,0,0-.89.92V8.38l-.28-.09c-1.17-.48-2.35-1-3.53-1.45a1.58,1.58,0,0,0-.42-.09H1.41a.91.91,0,0,0-.78,1v8.34a1.17,1.17,0,0,0,.09.45A1,1,0,0,0,2,17Zm.49-7.9.27.1,2.77,1.19c.19.05.19.14.19.3v2.55a.25.25,0,0,1-.19.3L2.72,14.72l-.23.09Z"/><path class="cls-1" d="M22.27,5H20.94L19.27,6.93H21.4V17H10.46L8.78,19l13.77,0a1.1,1.1,0,0,0,.83-1.27V6.11C23.38,5.36,23,5,22.27,5Z"/><rect class="cls-1" x="11" y="-2.58" width="2" height="29.16" rx="1" transform="translate(10.86 -4.93) rotate(41.14)"/></svg>