<?xml version="1.0" encoding="utf-8"?>
<!-- Generator: Adobe Illustrator 25.1.0, SVG Export Plug-In . SVG Version: 6.00 Build 0)  -->
<svg version="1.1" id="레이어_1" xmlns="http://www.w3.org/2000/svg" xmlns:xlink="http://www.w3.org/1999/xlink" x="0px"
	 y="0px" viewBox="0 0 24 24" style="enable-background:new 0 0 24 24;" xml:space="preserve">
<path d="M2,17l2.3-0.9l1.4-0.6v0.4l1.9-2.2V6.9h5.9L15.2,5H6.6C6.1,5,5.7,5.4,5.7,5.9v2.5L5.4,8.3c-1.2-0.5-2.3-1-3.5-1.4
	c-0.1,0-0.3-0.1-0.4-0.1H1.4c-0.5,0.1-0.8,0.5-0.8,1v8.3c0,0.2,0,0.3,0.1,0.5C1,17,1.5,17.2,2,17z M2.5,9.1l0.3,0.1l2.8,1.2
	c0.2,0.1,0.2,0.1,0.2,0.3v2.6c0,0.1-0.1,0.3-0.2,0.3c0,0,0,0,0,0l-2.8,1.2l-0.2,0.1V9.1z"/>
<path d="M22.3,5h-1.3l-1.7,1.9h2.1V17H10.5l-1.7,2h13.8c0.6-0.1,0.9-0.7,0.8-1.3V6.1C23.4,5.4,23,5,22.3,5z"/>
<path d="M21.6,1L21.6,1c0.4,0.4,0.5,1,0.1,1.4L3.8,22.9c-0.4,0.4-1,0.5-1.4,0.1l0,0C2,22.6,2,22,2.3,21.6L20.2,1.1
	C20.5,0.7,21.2,0.7,21.6,1z"/>
</svg>
