<?xml version="1.0" encoding="utf-8"?>
<!-- Generator: Adobe Illustrator 25.1.0, SVG Export Plug-In . SVG Version: 6.00 Build 0)  -->
<svg version="1.1" id="레이어_1" xmlns="http://www.w3.org/2000/svg" xmlns:xlink="http://www.w3.org/1999/xlink" x="0px"
	 y="0px" viewBox="0 0 24 24" style="enable-background:new 0 0 24 24;" xml:space="preserve">
<g id="레이어_2_1_">
	<g id="레이어_1-2">
		<path d="M6.5,18.9c-0.7-0.3-0.8-0.5-0.8-1.3v-2.2L4.3,16L2,17c-0.5,0.2-1,0-1.3-0.5c-0.1-0.1-0.1-0.3-0.1-0.4V7.8
			c-0.1-0.5,0.3-1,0.8-1c0,0,0,0,0.1,0s0.3,0,0.4,0.1c1.2,0.5,2.4,1,3.5,1.5l0.3,0.1V5.9C5.7,5.4,6.1,5,6.6,5h15.7
			c0.8,0,1.1,0.3,1.1,1.1v11.6c0,0.8-0.2,1-0.8,1.3L6.5,18.9z M21.4,17V6.9H7.6V17H21.4z M2.5,14.8l0.2-0.1l2.8-1.1
			c0.1,0,0.2-0.2,0.2-0.3v-2.5c0-0.2,0-0.3-0.2-0.3L2.8,9.2L2.5,9.1V14.8z"/>
	</g>
</g>
</svg>
