<svg id="레이어_1" data-name="레이어 1" xmlns="http://www.w3.org/2000/svg" viewBox="0 0 24 24"><defs><style>.cls-1{fill:#222;}</style></defs><path class="cls-1" d="M20.14,3.11H3.78A1.86,1.86,0,0,0,1.92,5V19.73A1.85,1.85,0,0,0,5,21.16l2.89-2.43H20.14A1.86,1.86,0,0,0,22,16.87V5A1.86,1.86,0,0,0,20.14,3.11ZM19.77,16.5H7.65a1.21,1.21,0,0,0-.38.06l-.34.13a1,1,0,0,0-.34.19L4.15,18.94V5.34H19.77ZM7.87,9.06A1.12,1.12,0,0,1,9,7.94h5.95a1.12,1.12,0,1,1,0,2.23H9A1.11,1.11,0,0,1,7.87,9.06Zm0,3.72A1.12,1.12,0,0,1,9,11.66h5.95a1.12,1.12,0,1,1,0,2.23H9A1.11,1.11,0,0,1,7.87,12.78Z"/></svg>