<?xml version="1.0" encoding="utf-8"?>
<!-- Generator: Adobe Illustrator 25.1.0, SVG Export Plug-In . SVG Version: 6.00 Build 0)  -->
<svg version="1.1" id="레이어_1" xmlns="http://www.w3.org/2000/svg" xmlns:xlink="http://www.w3.org/1999/xlink" x="0px"
	 y="0px" viewBox="0 0 24 24" style="enable-background:new 0 0 24 24;" xml:space="preserve">
<g>
	<path d="M12,1.9C6.4,1.9,1.9,6.4,1.9,12c0,1.6,0.3,3.1,1,4.4v3.8c0,0.5,0.4,0.9,0.9,0.9h3.8c1.4,0.7,2.9,1,4.4,1
		c5.6,0,10.1-4.5,10.1-10.1S17.6,1.9,12,1.9z M12,20.3c-1.3,0-2.6-0.3-3.8-0.9c-0.1-0.1-0.3-0.1-0.4-0.1H4.7v-3.1
		c0-0.1,0-0.3-0.1-0.4C4,14.6,3.7,13.3,3.7,12c0-4.6,3.7-8.3,8.3-8.3s8.3,3.7,8.3,8.3S16.6,20.3,12,20.3z"/>
	<path d="M8.9,10.8c-0.6,0-1.2,0.5-1.2,1.2s0.5,1.2,1.2,1.2c0.6,0,1.2-0.5,1.2-1.2S9.6,10.8,8.9,10.8z"/>
	<circle cx="12" cy="12" r="1.2"/>
	<circle cx="15.1" cy="12" r="1.2"/>
</g>
</svg>
