<?xml version="1.0" encoding="utf-8"?>
<!-- Generator: Adobe Illustrator 25.1.0, SVG Export Plug-In . SVG Version: 6.00 Build 0)  -->
<svg version="1.1" id="레이어_1" xmlns="http://www.w3.org/2000/svg" xmlns:xlink="http://www.w3.org/1999/xlink" x="0px"
	 y="0px" viewBox="0 0 24 24" style="enable-background:new 0 0 24 24;" xml:space="preserve">
<path d="M20,23h-9c-1.7,0-3-1.3-3-3v-9c0-1.7,1.3-3,3-3h9c1.7,0,3,1.3,3,3v9C23,21.7,21.7,23,20,23z M11,10c-0.6,0-1,0.4-1,1v9
	c0,0.6,0.4,1,1,1h9c0.6,0,1-0.4,1-1v-9c0-0.6-0.4-1-1-1H11z"/>
<path d="M5,16H4c-0.8,0-1.6-0.3-2.1-0.9C1.3,14.6,1,13.8,1,13V4c0-0.8,0.3-1.6,0.9-2.1C2.4,1.3,3.2,1,4,1h9c0.8,0,1.6,0.3,2.1,0.9
	C15.7,2.4,16,3.2,16,4v1c0,0.6-0.4,1-1,1s-1-0.4-1-1V4c0-0.3-0.1-0.5-0.3-0.7S13.3,3,13,3H4C3.7,3,3.5,3.1,3.3,3.3S3,3.7,3,4v9
	c0,0.3,0.1,0.5,0.3,0.7S3.7,14,4,14h1c0.6,0,1,0.4,1,1S5.6,16,5,16z"/>
</svg>
