<svg id="레이어_1" data-name="레이어 1" xmlns="http://www.w3.org/2000/svg" viewBox="0 0 24 24"><path d="M21.17,5.33H16.82l-.28-1.09A2.94,2.94,0,0,0,13.68,2H10.32A2.94,2.94,0,0,0,7.46,4.24L7.18,5.33H2.83A.84.84,0,0,0,2,6.17.83.83,0,0,0,2.83,7h.88l.7,12.64A2.51,2.51,0,0,0,6.91,22H17.09a2.51,2.51,0,0,0,2.5-2.36L20.29,7h.88A.83.83,0,0,0,22,6.17.84.84,0,0,0,21.17,5.33ZM9.07,4.64a1.29,1.29,0,0,1,1.25-1h3.36a1.29,1.29,0,0,1,1.25,1l.17.69H8.9Zm8.85,14.91a.82.82,0,0,1-.83.78H6.91a.82.82,0,0,1-.83-.78L5.38,7H18.62Z"/><path d="M8.67,8.67a.84.84,0,0,0-.84.83v8.33a.85.85,0,0,0,.84.84.84.84,0,0,0,.83-.84V9.5A.83.83,0,0,0,8.67,8.67Z"/><path d="M12,8.67a.83.83,0,0,0-.83.83v8.33a.83.83,0,1,0,1.66,0V9.5A.83.83,0,0,0,12,8.67Z"/><path d="M15.33,8.67a.83.83,0,0,0-.83.83v8.33a.84.84,0,0,0,.83.84.85.85,0,0,0,.84-.84V9.5A.84.84,0,0,0,15.33,8.67Z"/></svg>