<?xml version="1.0" encoding="utf-8"?>
<!-- Generator: Adobe Illustrator 25.1.0, SVG Export Plug-In . SVG Version: 6.00 Build 0)  -->
<svg version="1.1" id="레이어_1" xmlns="http://www.w3.org/2000/svg" xmlns:xlink="http://www.w3.org/1999/xlink" x="0px"
	 y="0px" viewBox="0 0 24 24" style="enable-background:new 0 0 24 24;" xml:space="preserve">
<path d="M21.2,5.3h-4.4l-0.3-1.1C16.2,2.9,15,2,13.7,2h-3.4C9,2,7.8,2.9,7.5,4.2L7.2,5.3H2.8C2.4,5.3,2,5.7,2,6.2C2,6.6,2.4,7,2.8,7
	h0.9l0.7,12.6C4.5,21,5.6,22,6.9,22h10.2c1.3,0,2.4-1,2.5-2.4L20.3,7h0.9C21.6,7,22,6.6,22,6.2C22,5.7,21.6,5.3,21.2,5.3z M9.1,4.6
	c0.1-0.6,0.7-1,1.2-1h3.4c0.6,0,1.1,0.4,1.2,1l0.2,0.7H8.9L9.1,4.6z M17.9,19.5c0,0.4-0.4,0.8-0.8,0.8H6.9c-0.4,0-0.8-0.3-0.8-0.8
	L5.4,7h13.2L17.9,19.5z"/>
<path d="M8.7,8.7C8.2,8.7,7.8,9,7.8,9.5v8.3c0,0.5,0.4,0.8,0.8,0.8c0.5,0,0.8-0.4,0.8-0.8V9.5C9.5,9,9.1,8.7,8.7,8.7z"/>
<path d="M12,8.7c-0.5,0-0.8,0.4-0.8,0.8v8.3c0,0.5,0.4,0.8,0.8,0.8s0.8-0.4,0.8-0.8c0,0,0,0,0,0V9.5C12.8,9,12.5,8.7,12,8.7z"/>
<path d="M15.3,8.7c-0.5,0-0.8,0.4-0.8,0.8v8.3c0,0.5,0.4,0.8,0.8,0.8c0.5,0,0.8-0.4,0.8-0.8V9.5C16.2,9,15.8,8.7,15.3,8.7z"/>
</svg>
