<svg id="레이어_1" data-name="레이어 1" xmlns="http://www.w3.org/2000/svg" viewBox="0 0 24 24"><path d="M21.09,11.5a.92.92,0,0,0-.92.91v5a2.12,2.12,0,0,1-2.11,2.12H5.94a2.12,2.12,0,0,1-2.11-2.12v-5.1a.92.92,0,1,0-1.83,0v5.1a4,4,0,0,0,3.94,3.95H18.06A4,4,0,0,0,22,17.43v-5A.91.91,0,0,0,21.09,11.5Z"/><path d="M11.36,16.88a.87.87,0,0,0,.64.27.89.89,0,0,0,.64-.27l3.51-3.51a.91.91,0,0,0,0-1.29.92.92,0,0,0-1.29,0L12.91,14V3.7a.91.91,0,1,0-1.82,0V14l-2-1.95a.91.91,0,0,0-.64-.27h0a.91.91,0,0,0-.65,1.56Z"/></svg>