<?xml version="1.0" encoding="utf-8"?>
<!-- Generator: Adobe Illustrator 25.1.0, SVG Export Plug-In . SVG Version: 6.00 Build 0)  -->
<svg version="1.1" id="레이어_1" xmlns="http://www.w3.org/2000/svg" xmlns:xlink="http://www.w3.org/1999/xlink" x="0px"
	 y="0px" viewBox="0 0 24 24" style="enable-background:new 0 0 24 24;" xml:space="preserve">
<path d="M20.7,3.3c-1.8-1.8-4.7-1.8-6.5,0c0,0,0,0,0,0L3.5,14c-0.1,0.1-0.2,0.3-0.2,0.4L1.9,21c0,0.3,0,0.5,0.2,0.8
	C2.4,21.9,2.6,22,2.9,22l6.6-1.3c0.2,0,0.3-0.1,0.4-0.2L20.7,9.8C22.5,8,22.5,5.1,20.7,3.3C20.7,3.3,20.7,3.3,20.7,3.3z M9,19.1
	l-5.2,1l1-5.1l8.5-8.5l4.1,4.1L9,19.1z M19.5,8.6l-0.8,0.9l-4.1-4.2l0.8-0.8c1.1-1.1,2.9-1.2,4-0.1c0,0,0.1,0.1,0.1,0.1
	C20.7,5.6,20.7,7.4,19.5,8.6z"/>
</svg>
