<?xml version="1.0" encoding="utf-8"?>
<!-- Generator: Adobe Illustrator 25.1.0, SVG Export Plug-In . SVG Version: 6.00 Build 0)  -->
<svg version="1.1" id="레이어_1" xmlns="http://www.w3.org/2000/svg" xmlns:xlink="http://www.w3.org/1999/xlink" x="0px"
	 y="0px" viewBox="0 0 24 24" style="enable-background:new 0 0 24 24;" xml:space="preserve">
<path d="M10,18c-0.3,0-0.5-0.1-0.7-0.3c-0.4-0.4-0.4-1,0-1.4l4.3-4.3L9.3,7.7c-0.4-0.4-0.4-1,0-1.4s1-0.4,1.4,0l5,5
	c0.4,0.4,0.4,1,0,1.4l-5,5C10.5,17.9,10.3,18,10,18z"/>
<path d="M15,13H3c-0.6,0-1-0.4-1-1s0.4-1,1-1h12c0.6,0,1,0.4,1,1S15.6,13,15,13z"/>
<path d="M19,22.3h-4c-0.6,0-1-0.4-1-1s0.4-1,1-1h4c0.3,0,0.5-0.1,0.7-0.3c0.2-0.2,0.3-0.4,0.3-0.7v-14c0-0.3-0.1-0.5-0.3-0.7
	c-0.2-0.2-0.4-0.3-0.7-0.3h-4c-0.6,0-1-0.4-1-1s0.4-1,1-1h4c0.8,0,1.5,0.3,2.1,0.9S22,4.5,22,5.3v14c0,0.8-0.3,1.5-0.9,2.1
	S19.8,22.3,19,22.3z"/>
</svg>
