<?xml version="1.0" encoding="utf-8"?>
<!-- Generator: Adobe Illustrator 25.1.0, SVG Export Plug-In . SVG Version: 6.00 Build 0)  -->
<svg version="1.1" id="레이어_1" xmlns="http://www.w3.org/2000/svg" xmlns:xlink="http://www.w3.org/1999/xlink" x="0px"
	 y="0px" viewBox="0 0 24 24" style="enable-background:new 0 0 24 24;" xml:space="preserve">
<path d="M9,22H5c-0.8,0-1.6-0.3-2.1-0.9C2.3,20.6,2,19.8,2,19V5c0-0.8,0.3-1.6,0.9-2.1C3.4,2.3,4.2,2,5,2h4c0.6,0,1,0.4,1,1
	S9.6,4,9,4H5C4.7,4,4.5,4.1,4.3,4.3C4.1,4.5,4,4.7,4,5v14c0,0.3,0.1,0.5,0.3,0.7C4.5,19.9,4.7,20,5,20h4c0.6,0,1,0.4,1,1
	S9.6,22,9,22z"/>
<path d="M16,18c-0.3,0-0.5-0.1-0.7-0.3c-0.4-0.4-0.4-1,0-1.4l4.3-4.3l-4.3-4.3c-0.4-0.4-0.4-1,0-1.4s1-0.4,1.4,0l5,5
	c0.4,0.4,0.4,1,0,1.4l-5,5C16.5,17.9,16.3,18,16,18z"/>
<path d="M21,13H9c-0.6,0-1-0.4-1-1s0.4-1,1-1h12c0.6,0,1,0.4,1,1S21.6,13,21,13z"/>
</svg>
