<svg id="레이어_1" data-name="레이어 1" xmlns="http://www.w3.org/2000/svg" viewBox="0 0 24 24"><path d="M21.9,5.3V2.8a.86.86,0,0,0-.8-.8H1.6a.77.77,0,0,0-.7.8V18.4a.86.86,0,0,0,.8.8h2v1A1.77,1.77,0,0,0,5.4,22h16a1.79,1.79,0,0,0,1.8-1.8h0V7.1A2.07,2.07,0,0,0,21.9,5.3ZM3.6,9v8.6H2.4V3.6H20.2V5.3h-5a1.79,1.79,0,0,0-1.8,1.8h0a.22.22,0,0,1-.2.2H5.4A1.71,1.71,0,0,0,3.6,9Zm18,11.2a.22.22,0,0,1-.2.2H5.4a.22.22,0,0,1-.2-.2h0V9a.22.22,0,0,1,.2-.2h7.9A1.79,1.79,0,0,0,15.1,7a.22.22,0,0,1,.2-.2h6.1a.22.22,0,0,1,.2.2h0Z"/><path d="M12,10H6.9a.86.86,0,0,0-.8.8.86.86,0,0,0,.8.8H12a.86.86,0,0,0,.8-.8A.86.86,0,0,0,12,10Z"/><path d="M12,11.9H6.9a.75.75,0,0,0-.7.9.68.68,0,0,0,.7.7H12a.75.75,0,0,0,.7-.9A.68.68,0,0,0,12,11.9Z"/></svg>