<?xml version="1.0" encoding="utf-8"?>
<!-- Generator: Adobe Illustrator 25.1.0, SVG Export Plug-In . SVG Version: 6.00 Build 0)  -->
<svg version="1.1" id="레이어_1" xmlns="http://www.w3.org/2000/svg" xmlns:xlink="http://www.w3.org/1999/xlink" x="0px"
	 y="0px" viewBox="0 0 24 24" style="enable-background:new 0 0 24 24;" xml:space="preserve">
<path d="M21.9,5.3V2.8c0-0.4-0.4-0.8-0.8-0.8H1.6C1.2,2,0.9,2.4,0.9,2.8v15.6c0,0.4,0.4,0.8,0.8,0.8c0,0,0,0,0,0h2v1
	c0,1,0.8,1.8,1.7,1.8h16c1,0,1.8-0.8,1.8-1.8v0V7.1C23.2,6.3,22.6,5.6,21.9,5.3z M3.6,9v8.6H2.4v-14h17.8v1.7h-5
	c-1,0-1.8,0.8-1.8,1.8v0c0,0.1-0.1,0.2-0.2,0.2H5.4C4.4,7.3,3.6,8,3.6,9z M21.6,20.2c0,0.1-0.1,0.2-0.2,0.2c0,0,0,0,0,0h-16
	c-0.1,0-0.2-0.1-0.2-0.2l0,0V9c0-0.1,0.1-0.2,0.2-0.2h7.9c1,0,1.8-0.8,1.8-1.8c0-0.1,0.1-0.2,0.2-0.2c0,0,0,0,0,0h6.1
	c0.1,0,0.2,0.1,0.2,0.2c0,0,0,0,0,0L21.6,20.2z"/>
<path d="M12,10H6.9c-0.4,0-0.8,0.4-0.8,0.8s0.4,0.8,0.8,0.8c0,0,0,0,0,0H12c0.4,0,0.8-0.4,0.8-0.8C12.8,10.4,12.4,10,12,10z"/>
<path d="M12,11.9H6.9c-0.4,0-0.8,0.4-0.7,0.9c0,0.4,0.3,0.7,0.7,0.7H12c0.4,0,0.8-0.4,0.7-0.9C12.7,12.2,12.4,11.9,12,11.9z"/>
</svg>
