<svg width="493" height="100" viewBox="0 0 493 100" fill="none" xmlns="http://www.w3.org/2000/svg">
<g clip-path="url(#clip0_240_798)">
<path d="M285.919 95.5451C285.905 95.1652 285.743 94.8056 285.467 94.5419C285.192 94.2782 284.824 94.131 284.441 94.1312H273.82C273.176 94.2071 272.524 94.156 271.9 93.981C271.276 93.806 270.693 93.5106 270.185 93.1115C269.676 92.7124 269.252 92.2176 268.936 91.6554C268.62 91.0932 268.419 90.4747 268.345 89.8352C268.253 88.8407 268.465 87.8416 268.953 86.9685C269.441 86.0954 270.183 85.3889 271.082 84.9411C271.774 84.5709 272.295 83.948 272.533 83.2038C272.772 82.4597 272.709 81.6526 272.36 80.9532C272.223 80.5798 271.966 80.2614 271.63 80.0469C271.265 79.6844 270.845 79.3218 270.425 78.9593C270.277 78.8427 270.153 78.6981 270.06 78.5339C269.968 78.3697 269.909 78.189 269.887 78.0021C269.865 77.8153 269.88 77.6259 269.932 77.4449C269.983 77.2639 270.07 77.0948 270.188 76.9473C270.706 76.3691 271.074 75.6734 271.258 74.9212C271.443 74.169 271.439 73.3834 271.246 72.6331C270.966 71.9083 270.512 71.2622 269.924 70.7506C269.335 70.239 268.631 69.8773 267.87 69.6966C267.578 69.6012 267.324 69.4167 267.144 69.1693C266.964 68.9219 266.866 68.6244 266.867 68.319V63.6786L268.509 63.4973C269.138 63.4973 269.742 63.2491 270.187 62.8072C270.631 62.3652 270.881 61.7659 270.881 61.1409C270.881 60.5159 270.631 59.9165 270.187 59.4746C269.742 59.0327 269.138 58.7844 268.509 58.7844H258.837C259.202 58.0594 259.567 57.6968 259.749 57.3343L272.159 39.7516C273.436 37.9389 273.619 37.2138 272.159 35.7637C269.056 32.5009 269.239 29.4194 271.246 25.7941C275.752 17.3444 282.673 10.407 291.139 5.85488C291.964 5.43034 292.757 4.94564 293.511 4.40476C293.951 4.03115 294.233 3.50628 294.301 2.93501C294.369 2.36374 294.217 1.78815 293.876 1.32324C293.622 0.953144 293.249 0.679808 292.818 0.548065C292.386 0.416322 291.923 0.433992 291.503 0.598178C289.152 1.61157 286.893 2.8245 284.751 4.22349C276.631 9.58612 270.133 17.0428 265.954 25.7941C264.98 27.5713 264.581 29.6029 264.809 31.6133C265.038 33.6238 265.884 35.5157 267.232 37.0326C267.454 37.2421 267.639 37.4872 267.779 37.7576C267.414 38.1202 267.232 38.664 266.867 39.0265C263.034 44.4645 259.202 49.9024 255.187 55.5217C254.778 56.0188 254.473 56.591 254.288 57.2056C254.102 57.8203 254.041 58.4652 254.107 59.1034C254.173 59.7416 254.365 60.3605 254.673 60.9248C254.98 61.4891 255.397 61.9875 255.899 62.3916C256.314 62.7946 256.812 63.1037 257.358 63.298C258.072 63.5006 258.807 63.6223 259.548 63.6605H259.767L262.231 66.4701C261.629 70.9655 261.611 72.1256 264.439 73.4669C264.614 73.5551 264.77 73.6769 264.897 73.8252C265.024 73.9736 265.12 74.1455 265.179 74.3311C265.238 74.5166 265.26 74.7121 265.243 74.9061C265.225 75.1 265.169 75.2886 265.078 75.4609V75.5878C264.515 76.4323 264.284 77.4526 264.429 78.455C264.574 79.4574 265.084 80.3722 265.863 81.0257C266.093 81.2971 266.219 81.6406 266.219 81.9955C266.219 82.3504 266.093 82.6939 265.863 82.9653C264.382 84.7188 263.562 86.9301 263.545 89.2189C263.549 91.7344 264.545 94.1482 266.318 95.9438C268.092 97.7393 270.503 98.7739 273.035 98.826H284.459C284.85 98.8213 285.223 98.6651 285.499 98.3908C285.775 98.1164 285.933 97.7457 285.937 97.3578V95.5451H285.919Z" fill="#009FE8" stroke="#009FE8" stroke-width="0.5" stroke-miterlimit="10"/>
<path d="M5.87887 6.30804C7.17361 6.3385 8.4088 6.85443 9.33635 7.75218C10.2639 8.64994 10.8151 9.86304 10.8793 11.1478C10.8018 12.4297 10.2345 13.6338 9.29323 14.5142C8.35201 15.3946 7.1079 15.8849 5.815 15.8849C4.5221 15.8849 3.27798 15.3946 2.33676 14.5142C1.39554 13.6338 0.82824 12.4297 0.750732 11.1478C0.811924 9.83986 1.37967 8.60598 2.33533 7.70406C3.291 6.80213 4.56062 6.30195 5.87887 6.30804ZM4.05391 28.0599H7.52134C7.72265 28.0575 7.92247 28.0945 8.10938 28.1688C8.2963 28.2432 8.46664 28.3533 8.61069 28.493C8.75473 28.6327 8.86966 28.7993 8.94891 28.9831C9.02816 29.1669 9.07017 29.3645 9.07255 29.5644V95.7807C9.06782 96.1831 8.90479 96.5677 8.61832 96.8522C8.33185 97.1367 7.94468 97.2987 7.53959 97.3034H4.16341C3.9621 97.3034 3.76276 97.264 3.57677 97.1875C3.39078 97.1109 3.22179 96.9988 3.07944 96.8574C2.93709 96.716 2.82417 96.5482 2.74713 96.3634C2.67009 96.1787 2.63044 95.9807 2.63044 95.7807V29.6369C2.62799 29.4363 2.66597 29.2372 2.74214 29.0514C2.81832 28.8655 2.93114 28.6967 3.07398 28.5548C3.21682 28.413 3.38679 28.3009 3.57388 28.2252C3.76098 28.1496 3.96142 28.1119 4.16341 28.1143L4.05391 28.0599Z" fill="white" stroke="white" stroke-width="0.25" stroke-miterlimit="10"/>
<path d="M34.111 97.3034H30.7531C30.3496 97.3034 29.9625 97.1455 29.6755 96.8638C29.3885 96.5822 29.2249 96.1995 29.2201 95.7989V29.6188C29.2249 29.2181 29.3885 28.8355 29.6755 28.5538C29.9625 28.2722 30.3496 28.1142 30.7531 28.1143H33.9832C34.3867 28.1142 34.7738 28.2722 35.0608 28.5538C35.3478 28.8355 35.5114 29.2181 35.5162 29.6188V39.0627H36.1549C39.3669 31.8121 46.7397 27.2079 56.6858 27.2079C70.811 27.2079 80.4102 36.3981 80.4102 51.9326V95.7989C80.4054 96.1995 80.2418 96.5822 79.9548 96.8638C79.6679 97.1455 79.2807 97.3034 78.8773 97.3034H75.5376C75.1342 97.3034 74.747 97.1455 74.46 96.8638C74.1731 96.5822 74.0094 96.1995 74.0046 95.7989V52.2951C74.0046 40.6397 66.577 33.0628 55.2805 33.0628C43.984 33.0628 35.644 40.8935 35.644 53.002V95.7989C35.6392 96.1995 35.4755 96.5822 35.1886 96.8638C34.9016 97.1455 34.5144 97.3034 34.111 97.3034Z" fill="white" stroke="white" stroke-width="0.25" stroke-miterlimit="10"/>
<path d="M124.428 33.7154H112.895C112.483 33.7154 112.089 33.8777 111.798 34.1667C111.507 34.4556 111.343 34.8475 111.343 35.2562V80.3551C111.343 88.8383 116.818 92.2098 122.768 92.2098H126.18C126.377 92.2001 126.573 92.2289 126.759 92.2947C126.944 92.3605 127.115 92.462 127.26 92.5934C127.406 92.7247 127.524 92.8833 127.608 93.0601C127.692 93.2369 127.74 93.4284 127.75 93.6237C127.758 93.6595 127.758 93.6967 127.75 93.7325V96.7596C127.748 97.1403 127.606 97.5072 127.35 97.7911C127.095 98.0749 126.744 98.2561 126.363 98.3003C125.304 98.3003 124.009 98.4635 122.238 98.5179C113.387 98.5179 104.919 92.518 104.919 81.6964V35.2562C104.915 34.849 104.75 34.4598 104.46 34.1719C104.17 33.884 103.778 33.7201 103.368 33.7154H96.2144C95.803 33.7154 95.4084 33.5531 95.1175 33.2641C94.8266 32.9752 94.6632 32.5833 94.6632 32.1747V29.6369C94.6607 29.4363 94.6987 29.2372 94.7749 29.0514C94.8511 28.8656 94.9639 28.6967 95.1067 28.5549C95.2496 28.413 95.4195 28.3009 95.6066 28.2253C95.7937 28.1496 95.9942 28.1119 96.1962 28.1143H103.387C103.796 28.1096 104.188 27.9458 104.478 27.6578C104.768 27.3699 104.933 26.9807 104.938 26.5735V13.0693C104.938 12.8669 104.978 12.6666 105.056 12.4796C105.134 12.2927 105.248 12.1229 105.392 11.9798C105.536 11.8367 105.707 11.7232 105.895 11.6458C106.084 11.5684 106.285 11.5285 106.489 11.5285H109.81C110.219 11.5333 110.608 11.6977 110.895 11.9861C111.182 12.2746 111.343 12.6637 111.343 13.0693V26.5735C111.343 26.9822 111.507 27.3741 111.798 27.663C112.089 27.952 112.483 28.1143 112.895 28.1143H124.428C124.63 28.1119 124.829 28.1489 125.016 28.2232C125.203 28.2976 125.374 28.4077 125.518 28.5474C125.662 28.6871 125.777 28.8537 125.856 29.0375C125.935 29.2213 125.977 29.4189 125.98 29.6188V32.1565C125.98 32.5668 125.817 32.9606 125.526 33.2525C125.236 33.5443 124.841 33.7106 124.428 33.7154Z" fill="white" stroke="white" stroke-width="0.25" stroke-miterlimit="10"/>
<path d="M138.754 63.026C138.754 42.253 151.255 27.0811 168.775 27.0811C184.36 27.0811 197.974 39.389 197.974 60.7421V62.7541C197.97 63.1613 197.805 63.5505 197.515 63.8384C197.225 64.1263 196.833 64.2902 196.423 64.2949H146.894C146.686 64.2949 146.48 64.3358 146.289 64.4153C146.097 64.4947 145.923 64.6112 145.777 64.7579C145.631 64.9045 145.516 65.0785 145.438 65.2698C145.361 65.461 145.322 65.6657 145.324 65.8719C146.072 81.7145 155.325 92.808 170.034 92.808C173.79 92.9379 177.514 92.0894 180.837 90.3467C184.161 88.6041 186.967 86.0281 188.977 82.8746C189.111 82.6412 189.305 82.4475 189.539 82.3137C189.773 82.1798 190.039 82.1106 190.309 82.1133H193.959C194.369 82.1132 194.763 82.2724 195.056 82.557C195.35 82.8415 195.519 83.2288 195.529 83.6359C195.524 83.8667 195.474 84.0943 195.383 84.3066C191.733 92.0285 182.718 98.8079 169.979 98.681C151 98.7716 138.809 83.7991 138.754 63.026ZM189.853 58.5669C190.263 58.5622 190.655 58.3983 190.945 58.1104C191.235 57.8225 191.4 57.4333 191.404 57.0261C190.656 43.395 181.276 33.0084 168.738 33.0084C156.201 33.0084 146.894 43.5037 145.488 56.8993C145.471 57.0993 145.493 57.3009 145.555 57.4923C145.616 57.6837 145.715 57.8612 145.845 58.0145C145.976 58.1678 146.136 58.294 146.316 58.3857C146.496 58.4773 146.692 58.5328 146.894 58.5488H189.853V58.5669Z" fill="white" stroke="white" stroke-width="0.25" stroke-miterlimit="10"/>
<path d="M215.731 28.1143H218.943C219.144 28.1119 219.344 28.1489 219.531 28.2232C219.718 28.2975 219.888 28.4077 220.032 28.5474C220.176 28.6871 220.291 28.8536 220.371 29.0375C220.45 29.2213 220.492 29.4188 220.494 29.6188V38.9177H221.005C223.943 31.7758 231.645 27.0629 240.624 27.0629H242.449C242.842 27.0816 243.214 27.2502 243.486 27.5337C243.758 27.8173 243.909 28.194 243.909 28.5856V31.8665C243.909 32.064 243.869 32.2597 243.793 32.4422C243.717 32.6247 243.606 32.7906 243.465 32.9303C243.324 33.07 243.157 33.1808 242.973 33.2564C242.79 33.3321 242.593 33.371 242.394 33.371H242.193C241.609 33.371 240.934 33.2622 240.186 33.2622C228.834 33.2622 220.567 41.1654 220.567 51.9869V95.7807C220.563 96.1831 220.399 96.5676 220.113 96.8522C219.827 97.1367 219.439 97.2986 219.034 97.3033H215.676C215.475 97.3033 215.276 97.264 215.09 97.1874C214.904 97.1109 214.735 96.9988 214.592 96.8574C214.45 96.716 214.337 96.5481 214.26 96.3634C214.183 96.1787 214.143 95.9807 214.143 95.7807V29.6369C214.138 29.4371 214.174 29.2384 214.248 29.0527C214.322 28.8669 214.434 28.6979 214.575 28.5558C214.716 28.4137 214.885 28.3013 215.071 28.2255C215.257 28.1496 215.457 28.1118 215.658 28.1143H215.731Z" fill="white" stroke="white" stroke-width="0.25" stroke-miterlimit="10"/>
<path d="M321.853 57.6787C326.306 57.3343 335.887 56.6455 340.321 56.3554C340.705 56.3281 341.065 56.1582 341.329 55.8794C341.593 55.6007 341.741 55.2335 341.745 54.8509V48.9417C341.745 39.1171 334.938 32.9359 323.659 32.8816C314.644 32.8816 307.782 36.8331 305.61 43.3768C305.512 43.6886 305.319 43.9625 305.058 44.1606C304.796 44.3586 304.479 44.4711 304.15 44.4826H300.501C300.087 44.4778 299.693 44.3114 299.403 44.0196C299.112 43.7278 298.949 43.334 298.949 42.9237C298.93 42.8097 298.93 42.6933 298.949 42.5793C301.395 33.0991 311.268 27.1354 323.86 27.1354C335.668 27.1354 348.114 33.3166 348.114 49.4492V95.8532C348.109 96.2539 347.945 96.6365 347.658 96.9182C347.371 97.1998 346.984 97.3578 346.581 97.3577H343.223C343.024 97.3601 342.827 97.3236 342.642 97.2502C342.457 97.1768 342.289 97.0679 342.146 96.9299C342.004 96.7919 341.891 96.6274 341.812 96.4457C341.734 96.2641 341.692 96.0689 341.69 95.8714V85.3579H341.179C339.206 89.5148 336.052 93.0079 332.106 95.4073C328.16 97.8067 323.594 99.0076 318.969 98.8622C306.797 98.8622 296.65 91.4122 296.65 78.2161C296.705 65.9625 305.629 58.9475 321.853 57.6787ZM319.882 92.9711C332.839 92.9711 341.781 82.9109 341.781 69.6603V63.4429C341.781 63.0422 341.622 62.6577 341.339 62.3726C341.055 62.0876 340.67 61.9251 340.266 61.9203H340.157C335.595 62.2103 326.433 62.9354 323.167 63.1529C308.731 64.2405 303.22 70.0954 303.092 78.4517C303.183 87.4969 310.301 92.9711 319.882 92.9711Z" fill="white" stroke="white" stroke-width="0.25" stroke-miterlimit="10"/>
<path d="M364.465 62.8991C364.465 42.3074 376.912 27.0811 394.742 27.0811C407.516 27.0811 417.809 34.9117 420.437 46.7484C420.476 46.9497 420.475 47.1569 420.433 47.3577C420.391 47.5585 420.308 47.7489 420.191 47.9177C420.074 48.0865 419.924 48.2304 419.75 48.3409C419.576 48.4513 419.381 48.5262 419.178 48.561H418.941H415.473C415.126 48.5544 414.79 48.4333 414.519 48.2168C414.248 48.0003 414.057 47.7006 413.977 47.3647C412.94 43.1427 410.478 39.4009 407.001 36.7624C403.525 34.1239 399.243 32.7479 394.869 32.8634C380.945 32.9541 370.981 45.3164 370.981 62.7723C370.981 80.2281 380.543 92.8442 394.851 92.8442C399.251 93.0004 403.57 91.6425 407.079 89.0002C410.587 86.3579 413.069 82.5933 414.104 78.343C414.172 78.0039 414.357 77.699 414.627 77.4807C414.897 77.2623 415.235 77.1442 415.583 77.1466H419.05C419.458 77.1514 419.848 77.3158 420.135 77.6043C420.422 77.8927 420.583 78.2819 420.583 78.6874C420.583 78.778 420.583 78.8686 420.583 78.9593C418.028 90.7053 408.1 98.8985 394.869 98.7535C376.711 98.7716 364.52 83.5453 364.465 62.8991Z" fill="white" stroke="white" stroke-width="0.25" stroke-miterlimit="10"/>
<path d="M433.029 63.026C433.029 42.253 445.549 27.0811 463.068 27.0811C478.653 27.0811 492.268 39.389 492.268 60.7421V62.7723C492.258 63.1763 492.091 63.5608 491.802 63.8449C491.512 64.129 491.123 64.2903 490.716 64.2949H441.114C440.906 64.2949 440.701 64.3358 440.509 64.4153C440.317 64.4947 440.144 64.6112 439.998 64.7579C439.852 64.9045 439.736 65.0785 439.659 65.2698C439.581 65.461 439.542 65.6657 439.544 65.8719C440.311 81.7326 449.545 92.8261 464.273 92.8261C468.026 92.9564 471.748 92.108 475.068 90.3652C478.389 88.6224 481.191 86.0461 483.197 82.8927C483.332 82.6606 483.527 82.4679 483.761 82.3343C483.994 82.2006 484.26 82.1306 484.53 82.1314H488.18C488.59 82.1361 488.981 82.3 489.271 82.5879C489.561 82.8758 489.726 83.265 489.731 83.6722C489.726 83.8971 489.676 84.1189 489.585 84.3247C485.935 92.0467 476.901 98.826 464.181 98.6991C445.238 98.7716 433.029 83.7991 433.029 63.026ZM484.128 58.5669C484.538 58.5622 484.93 58.3983 485.22 58.1104C485.51 57.8225 485.675 57.4333 485.679 57.0261C484.931 43.395 475.551 32.9903 463.013 32.9903C450.476 32.9903 441.114 43.4675 439.709 56.9536C439.691 57.1542 439.715 57.3562 439.777 57.5476C439.84 57.7391 439.94 57.9161 440.073 58.0683C440.206 58.2204 440.368 58.3445 440.55 58.4333C440.732 58.522 440.93 58.5736 441.132 58.585H484.128V58.5669Z" fill="white" stroke="white" stroke-width="0.25" stroke-miterlimit="10"/>
</g>
<defs>
<clipPath id="clip0_240_798">
<rect width="491.973" height="99.2973" fill="white" transform="translate(0.513489)"/>
</clipPath>
</defs>
</svg>
