<svg xmlns="http://www.w3.org/2000/svg" viewBox="0 0 269.58 54.78"><defs><style>.cls-1{fill:#009fe8;stroke:#009fe8;stroke-width:0.5px;}.cls-1,.cls-2{stroke-miterlimit:10;}.cls-2{stroke:#000;stroke-width:0.25px;}</style></defs><g id="레이어_2" data-name="레이어 2"><g id="레이어_1-2" data-name="레이어 1"><path class="cls-1" d="M156.39,52.71a.81.81,0,0,0-.81-.78h-5.82a2.7,2.7,0,0,1-3-2.4,2.77,2.77,0,0,1,1.5-2.7,1.64,1.64,0,0,0,.7-2.2,1,1,0,0,0-.4-.5c-.2-.2-.43-.4-.66-.6a.79.79,0,0,1-.12-1.12,2.59,2.59,0,0,0,.58-2.38,2.64,2.64,0,0,0-1.85-1.62.8.8,0,0,1-.55-.76V35.13l.9-.1a1.3,1.3,0,0,0,0-2.6h-5.3c.2-.4.4-.6.5-.8l6.8-9.7c.7-1,.8-1.4,0-2.2-1.7-1.8-1.6-3.5-.5-5.5a26.86,26.86,0,0,1,10.9-11,9.13,9.13,0,0,0,1.3-.8,1.25,1.25,0,0,0,.2-1.7,1.09,1.09,0,0,0-1.3-.4,26.43,26.43,0,0,0-3.7,2,29.59,29.59,0,0,0-10.3,11.9,5.45,5.45,0,0,0,.7,6.2,1.38,1.38,0,0,1,.3.4c-.2.2-.3.5-.5.7-2.1,3-4.2,6-6.4,9.1a2.7,2.7,0,0,0,.4,3.8,2.18,2.18,0,0,0,.8.5,5,5,0,0,0,1.2.2h.12l1.35,1.55c-.33,2.48-.34,3.12,1.21,3.86a.82.82,0,0,1,.32,1.17,2.29,2.29,0,0,0,.43,3,.81.81,0,0,1,0,1.07,5.51,5.51,0,0,0-1.27,3.45,5.31,5.31,0,0,0,5.2,5.3h6.26a.81.81,0,0,0,.81-.84Z"/><path class="cls-2" d="M2.94,3.48A2.81,2.81,0,0,1,5.68,6.15a2.78,2.78,0,0,1-5.55,0A2.81,2.81,0,0,1,2.94,3.48Zm-1,12h1.9a.84.84,0,0,1,.85.84V52.84a.84.84,0,0,1-.85.84H2a.84.84,0,0,1-.84-.84V16.35A.84.84,0,0,1,2,15.51Z"/><path class="cls-2" d="M18.41,53.68H16.57a.84.84,0,0,1-.84-.83V16.34a.84.84,0,0,1,.84-.83h1.77a.84.84,0,0,1,.84.83v5.21h.35c1.76-4,5.8-6.54,11.25-6.54,7.74,0,13,5.07,13,13.64v24.2a.84.84,0,0,1-.84.83H41.11a.84.84,0,0,1-.84-.83v-24c0-6.43-4.07-10.61-10.26-10.61s-10.76,4.32-10.76,11V52.85A.84.84,0,0,1,18.41,53.68Z"/><path class="cls-2" d="M67.9,18.6H61.58a.85.85,0,0,0-.85.85V44.33c0,4.68,3,6.54,6.26,6.54l1.87,0a.83.83,0,0,1,.87.84v1.67a.85.85,0,0,1-.76.85c-.58,0-1.29.09-2.26.12-4.85,0-9.49-3.31-9.49-9.28V19.45a.85.85,0,0,0-.85-.85H52.44a.85.85,0,0,1-.85-.85v-1.4a.84.84,0,0,1,.85-.84h3.93a.85.85,0,0,0,.85-.85V7.21a.85.85,0,0,1,.85-.85h1.82a.85.85,0,0,1,.84.85v7.45a.85.85,0,0,0,.85.85H67.9a.84.84,0,0,1,.85.84v1.4A.85.85,0,0,1,67.9,18.6Z"/><path class="cls-2" d="M75.75,34.77c0-11.46,6.85-19.83,16.45-19.83,8.54,0,16,6.79,16,18.57v1.11a.85.85,0,0,1-.85.85H80.21a.86.86,0,0,0-.85.89c.41,8.74,5.48,14.86,13.54,14.86a11.78,11.78,0,0,0,10.38-5.48.84.84,0,0,1,.73-.42h2a.85.85,0,0,1,.78,1.21c-2,4.26-6.94,8-13.92,7.93C82.46,54.49,75.78,46.23,75.75,34.77Zm28-2.46a.85.85,0,0,0,.85-.88c-.41-7.52-5.55-13.25-12.42-13.25S80.21,24,79.44,31.39a.85.85,0,0,0,.85.92Z"/><path class="cls-2" d="M117.93,15.51h1.76a.84.84,0,0,1,.85.84v5.13h.28c1.61-3.94,5.83-6.54,10.75-6.54.35,0,.7,0,1,0a.84.84,0,0,1,.8.84v1.81a.83.83,0,0,1-.94.83c-.32,0-.69-.06-1.1-.06-6.22,0-10.75,4.36-10.75,10.33V52.84a.84.84,0,0,1-.85.84h-1.83a.84.84,0,0,1-.84-.84V16.35A.84.84,0,0,1,117.93,15.51Z"/><path class="cls-2" d="M176.08,31.82c2.44-.19,7.69-.57,10.12-.73a.83.83,0,0,0,.78-.83V27c0-5.42-3.73-8.83-9.91-8.86-4.94,0-8.7,2.18-9.89,5.79a.86.86,0,0,1-.8.61h-2a.85.85,0,0,1-.82-1.05c1.34-5.23,6.75-8.52,13.65-8.52,6.47,0,13.29,3.41,13.29,12.31v25.6a.84.84,0,0,1-.84.83h-1.84a.83.83,0,0,1-.84-.83V47.08h-.28a13,13,0,0,1-12.17,7.45c-6.67,0-12.23-4.11-12.23-11.39C162.3,36.39,167.19,32.52,176.08,31.82ZM175,51.29c7.1,0,12-5.55,12-12.86V35a.83.83,0,0,0-.89-.83c-2.5.16-7.52.56-9.31.68-7.91.6-10.93,3.83-11,8.44C165.85,48.27,169.75,51.29,175,51.29Z"/><path class="cls-2" d="M199.43,34.7c0-11.36,6.82-19.76,16.59-19.76,7,0,12.64,4.32,14.08,10.85a.85.85,0,0,1-.82,1h-1.9a.86.86,0,0,1-.82-.66,10.49,10.49,0,0,0-10.47-8C208.46,18.18,203,25,203,34.63s5.24,16.59,13.08,16.59a10.46,10.46,0,0,0,10.55-8,.83.83,0,0,1,.81-.66h1.9a.85.85,0,0,1,.83,1c-1.4,6.48-6.84,11-14.09,10.92C206.14,54.49,199.46,46.09,199.43,34.7Z"/><path class="cls-2" d="M237,34.77c0-11.46,6.86-19.83,16.46-19.83,8.54,0,16,6.79,16,18.57v1.12a.85.85,0,0,1-.85.84H241.43a.86.86,0,0,0-.85.88c.42,8.75,5.48,14.87,13.55,14.87a11.74,11.74,0,0,0,10.37-5.48.86.86,0,0,1,.73-.42h2a.85.85,0,0,1,.77,1.21c-2,4.26-6.95,8-13.92,7.93C243.69,54.49,237,46.23,237,34.77Zm28-2.46a.85.85,0,0,0,.85-.87c-.41-7.52-5.55-13.26-12.42-13.26s-12,5.78-12.77,13.22a.85.85,0,0,0,.85.91Z"/></g></g></svg>