<svg width="497" height="98" viewBox="0 0 497 98" fill="none" xmlns="http://www.w3.org/2000/svg">
<rect x="1" y="1" width="495" height="96" rx="15" fill="#EDF6FF" stroke="#D7D7D7" stroke-width="2"/>
<g clip-path="url(#clip0_358_2212)">
<path d="M89 72.625C89 75.0413 87.0413 77 84.625 77H37.375C34.9587 77 33 75.0413 33 72.625V25.375C33 22.9587 34.9587 21 37.375 21H84.625C87.0413 21 89 22.9587 89 25.375V72.625Z" fill="#FFE812"/>
<path d="M61 28.875C48.4354 28.875 38.25 36.906 38.25 46.8125C38.25 53.2173 42.5082 58.8372 48.9136 62.0106C48.5652 63.2124 46.6743 69.7421 46.599 70.2551C46.599 70.2551 46.5538 70.6405 46.8033 70.7875C47.0529 70.9345 47.3465 70.8203 47.3465 70.8203C48.0623 70.7203 55.6465 65.3929 56.9592 64.4678C58.2707 64.6535 59.621 64.75 61 64.75C73.5646 64.75 83.75 56.7192 83.75 46.8125C83.75 36.906 73.5646 28.875 61 28.875Z" fill="black"/>
<path d="M48.4219 53.0742C47.698 53.0742 47.1094 52.512 47.1094 51.8208V44.0234H45.0614C44.3512 44.0234 43.7734 43.4468 43.7734 42.7383C43.7734 42.0297 44.3514 41.4531 45.0614 41.4531H51.7823C52.4926 41.4531 53.0703 42.0297 53.0703 42.7383C53.0703 43.4468 52.4924 44.0234 51.7823 44.0234H49.7344V51.8208C49.7344 52.512 49.1457 53.0742 48.4219 53.0742ZM59.9307 53.0572C59.3834 53.0572 58.9648 52.8349 58.8385 52.4775L58.1886 50.776L54.1864 50.7758L53.536 52.4783C53.4102 52.8351 52.9918 53.0572 52.4445 53.0572C52.1566 53.0575 51.872 52.9957 51.6102 52.876C51.2483 52.7091 50.9005 52.2502 51.2991 51.0123L54.4386 42.7488C54.6597 42.1203 55.3315 41.4728 56.1864 41.4533C57.0437 41.4726 57.7155 42.1203 57.9371 42.7501L61.0752 51.0099C61.4747 52.2506 61.1269 52.7098 60.7651 52.8763C60.5031 52.9957 60.2186 53.0574 59.9307 53.0572C59.9307 53.0572 59.9305 53.0572 59.9307 53.0572ZM57.4985 48.4512L56.1875 44.7269L54.8765 48.4512H57.4985ZM63.1875 52.8828C62.4938 52.8828 61.9297 52.3429 61.9297 51.6797V42.7656C61.9297 42.0418 62.5308 41.4531 63.2695 41.4531C64.0082 41.4531 64.6094 42.0418 64.6094 42.7656V50.4766H67.3984C68.0921 50.4766 68.6562 51.0164 68.6562 51.6797C68.6562 52.3429 68.0921 52.8828 67.3984 52.8828H63.1875ZM70.4793 53.0572C69.7555 53.0572 69.1668 52.4685 69.1668 51.7447V42.7656C69.1668 42.0418 69.7555 41.4531 70.4793 41.4531C71.2032 41.4531 71.7918 42.0418 71.7918 42.7656V45.5866L75.4537 41.9247C75.642 41.7364 75.9008 41.6327 76.1817 41.6327C76.5094 41.6327 76.8384 41.774 77.0849 42.0203C77.3148 42.25 77.452 42.5456 77.4708 42.8525C77.4898 43.162 77.3868 43.4457 77.1812 43.6516L74.1902 46.6421L77.4209 50.9222C77.5252 51.0595 77.6012 51.2161 77.6445 51.383C77.6877 51.55 77.6974 51.7238 77.6729 51.8945C77.6495 52.0653 77.5924 52.2298 77.505 52.3783C77.4176 52.5269 77.3016 52.6567 77.1637 52.7601C76.9367 52.9326 76.6593 53.0257 76.3742 53.025C76.1708 53.0259 75.9701 52.9792 75.788 52.8887C75.6059 52.7981 75.4476 52.6661 75.3257 52.5033L72.2477 48.4249L71.7922 48.8803V51.744C71.7918 52.0921 71.6534 52.4258 71.4073 52.672C71.1611 52.9182 70.8274 53.0567 70.4793 53.0572Z" fill="#FFE812"/>
</g>
<path d="M159.493 36.072V36.648C159.493 46.008 157.117 52.38 146.749 57.6L149.305 61.236C161.725 54.936 164.173 46.368 164.173 36.072H159.493ZM148.801 36.072V39.852H162.337V36.072H148.801ZM159.601 44.244L147.073 44.964L147.649 49.068L159.601 47.916V44.244ZM168.205 32.832V66.168H173.029V32.832H168.205ZM171.769 45.576V49.5H177.637V45.576H171.769ZM192.61 36.072V36.648C192.61 46.008 190.234 52.38 179.866 57.6L182.422 61.236C194.842 54.936 197.29 46.368 197.29 36.072H192.61ZM181.918 36.072V39.852H195.454V36.072H181.918ZM192.718 44.244L180.19 44.964L180.766 49.068L192.718 47.916V44.244ZM201.322 32.832V66.168H206.146V32.832H201.322ZM204.886 45.576V49.5H210.754V45.576H204.886ZM225.8 51.624V59.22H230.588V51.624H225.8ZM228.212 34.56C221.084 34.56 215.756 38.196 215.756 43.74C215.756 49.356 221.084 52.956 228.212 52.956C235.34 52.956 240.668 49.356 240.668 43.74C240.668 38.196 235.34 34.56 228.212 34.56ZM228.212 38.34C232.784 38.34 235.952 40.356 235.952 43.74C235.952 47.196 232.784 49.176 228.212 49.176C223.64 49.176 220.472 47.196 220.472 43.74C220.472 40.356 223.64 38.34 228.212 38.34ZM213.164 58.464V62.352H243.332V58.464H213.164ZM246.281 58.644V62.532H276.449V58.644H246.281ZM258.917 52.344V60.228H263.705V52.344H258.917ZM249.665 35.028V38.808H268.313V42.372H249.737V51.732H254.489V46.116H273.065V35.028H249.665ZM249.737 49.824V53.676H273.821V49.824H249.737ZM295.654 35.424V40.284C295.654 46.764 292.918 53.172 287.122 55.692L289.966 59.652C296.59 56.592 299.542 48.852 299.542 40.284V35.424H295.654ZM296.59 35.424V40.284C296.59 48.492 299.542 55.908 305.986 58.86L308.794 55.008C303.106 52.56 300.478 46.44 300.478 40.284V35.424H296.59ZM310.378 32.832V66.276H315.202V32.832H310.378ZM328.051 36.288V38.376C328.051 42.552 325.711 46.872 320.131 48.672L322.615 52.38C328.987 50.328 331.975 44.676 331.975 38.376V36.288H328.051ZM329.023 36.288V38.376C329.023 44.352 331.903 49.788 338.131 51.804L340.579 48.096C335.179 46.368 332.911 42.3 332.911 38.376V36.288H329.023ZM321.427 34.812V38.628H339.427V34.812H321.427ZM342.091 32.868V52.956H346.879V32.868H342.091ZM345.547 40.932V44.856H351.307V40.932H345.547ZM324.631 54.396V58.248H342.091V66.204H346.879V54.396H324.631ZM375.137 32.868V66.204H379.889V32.868H375.137ZM378.809 45.864V49.86H384.713V45.864H378.809ZM353.609 37.8V41.616H373.013V37.8H353.609ZM363.365 43.488C358.505 43.488 354.905 46.8 354.905 51.444C354.905 56.088 358.505 59.4 363.365 59.4C368.225 59.4 371.825 56.088 371.825 51.444C371.825 46.8 368.225 43.488 363.365 43.488ZM363.365 47.376C365.633 47.376 367.253 48.888 367.253 51.444C367.253 54 365.633 55.512 363.365 55.512C361.097 55.512 359.477 54 359.477 51.444C359.477 48.888 361.097 47.376 363.365 47.376ZM360.953 33.408V39.24H365.741V33.408H360.953ZM409.838 32.868V66.204H414.662V32.868H409.838ZM400.01 36.324V37.188C400.01 46.116 396.554 52.164 386.978 56.772L389.462 60.588C401.306 54.864 404.762 46.512 404.762 36.324H400.01ZM388.742 36.324V40.104H402.278V36.324H388.742Z" fill="black"/>
<defs>
<clipPath id="clip0_358_2212">
<rect width="56" height="56" fill="white" transform="translate(33 21)"/>
</clipPath>
</defs>
</svg>
