<svg viewBox="0 0 56 56" fill="none" xmlns="http://www.w3.org/2000/svg">
<g clip-path="url(#clip0_358_2206)">
<path d="M56 51.625C56 54.0413 54.0413 56 51.625 56H4.375C1.95869 56 0 54.0413 0 51.625V4.375C0 1.95869 1.95869 0 4.375 0H51.625C54.0413 0 56 1.95869 56 4.375V51.625Z" fill="#FFE812"/>
<path d="M28 7.875C15.4354 7.875 5.25 15.906 5.25 25.8125C5.25 32.2173 9.50819 37.8372 15.9136 41.0106C15.5652 42.2124 13.6743 48.7421 13.599 49.2551C13.599 49.2551 13.5538 49.6405 13.8033 49.7875C14.0529 49.9345 14.3465 49.8203 14.3465 49.8203C15.0623 49.7203 22.6465 44.3929 23.9592 43.4678C25.2707 43.6535 26.621 43.75 28 43.75C40.5646 43.75 50.75 35.7192 50.75 25.8125C50.75 15.906 40.5646 7.875 28 7.875Z" fill="black"/>
<path d="M15.4219 32.0742C14.698 32.0742 14.1094 31.512 14.1094 30.8208V23.0234H12.0614C11.3512 23.0234 10.7734 22.4468 10.7734 21.7383C10.7734 21.0297 11.3514 20.4531 12.0614 20.4531H18.7823C19.4926 20.4531 20.0703 21.0297 20.0703 21.7383C20.0703 22.4468 19.4924 23.0234 18.7823 23.0234H16.7344V30.8208C16.7344 31.512 16.1457 32.0742 15.4219 32.0742ZM26.9307 32.0572C26.3834 32.0572 25.9648 31.8349 25.8385 31.4775L25.1886 29.776L21.1864 29.7758L20.536 31.4783C20.4102 31.8351 19.9918 32.0572 19.4445 32.0572C19.1566 32.0575 18.872 31.9957 18.6102 31.876C18.2483 31.7091 17.9005 31.2502 18.2991 30.0123L21.4386 21.7488C21.6597 21.1203 22.3315 20.4728 23.1864 20.4533C24.0437 20.4726 24.7155 21.1203 24.9371 21.7501L28.0752 30.0099C28.4747 31.2506 28.1269 31.7098 27.7651 31.8763C27.5031 31.9957 27.2186 32.0574 26.9307 32.0572C26.9307 32.0572 26.9305 32.0572 26.9307 32.0572ZM24.4985 27.4512L23.1875 23.7269L21.8765 27.4512H24.4985ZM30.1875 31.8828C29.4938 31.8828 28.9297 31.3429 28.9297 30.6797V21.7656C28.9297 21.0418 29.5308 20.4531 30.2695 20.4531C31.0082 20.4531 31.6094 21.0418 31.6094 21.7656V29.4766H34.3984C35.0921 29.4766 35.6562 30.0164 35.6562 30.6797C35.6562 31.3429 35.0921 31.8828 34.3984 31.8828H30.1875ZM37.4793 32.0572C36.7555 32.0572 36.1668 31.4685 36.1668 30.7447V21.7656C36.1668 21.0418 36.7555 20.4531 37.4793 20.4531C38.2032 20.4531 38.7918 21.0418 38.7918 21.7656V24.5866L42.4537 20.9247C42.642 20.7364 42.9008 20.6327 43.1817 20.6327C43.5094 20.6327 43.8384 20.774 44.0849 21.0203C44.3148 21.25 44.452 21.5456 44.4708 21.8525C44.4898 22.162 44.3868 22.4457 44.1812 22.6516L41.1902 25.6421L44.4209 29.9222C44.5252 30.0595 44.6012 30.2161 44.6445 30.383C44.6877 30.55 44.6974 30.7238 44.6729 30.8945C44.6495 31.0653 44.5924 31.2298 44.505 31.3783C44.4176 31.5269 44.3016 31.6567 44.1637 31.7601C43.9367 31.9326 43.6593 32.0257 43.3742 32.025C43.1708 32.0259 42.9701 31.9792 42.788 31.8887C42.6059 31.7981 42.4476 31.6661 42.3257 31.5033L39.2477 27.4249L38.7922 27.8803V30.744C38.7918 31.0921 38.6534 31.4258 38.4073 31.672C38.1611 31.9182 37.8274 32.0567 37.4793 32.0572Z" fill="#FFE812"/>
</g>
<defs>
<clipPath id="clip0_358_2206">
<rect width="56" height="56" fill="white"/>
</clipPath>
</defs>
</svg>
