<svg viewBox="0 0 43 43" fill="none" xmlns="http://www.w3.org/2000/svg">
<g clip-path="url(#clip0_358_2206)">
<path d="M43 39.6406C43 41.496 41.496 43 39.6406 43H3.35938C1.50399 43 0 41.496 0 39.6406V3.35938C0 1.50399 1.50399 0 3.35938 0H39.6406C41.496 0 43 1.50399 43 3.35938V39.6406Z" fill="#FFE812"/>
<path d="M21.5 6.04688C11.8522 6.04688 4.03125 12.2135 4.03125 19.8203C4.03125 24.7383 7.30093 29.0536 12.2194 31.4903C11.9518 32.4131 10.4999 37.427 10.4421 37.8209C10.4421 37.8209 10.4073 38.1168 10.599 38.2297C10.7906 38.3426 11.0161 38.2549 11.0161 38.2549C11.5657 38.1781 17.3893 34.0874 18.3973 33.3771C19.4043 33.5197 20.4411 33.5938 21.5 33.5938C31.1478 33.5938 38.9688 27.4273 38.9688 19.8203C38.9688 12.2135 31.1478 6.04688 21.5 6.04688Z" fill="black"/>
</g>
<defs>
<clipPath id="clip0_358_2206">
<rect width="43" height="43" fill="white"/>
</clipPath>
</defs>
</svg>
