<?xml version="1.0" encoding="utf-8"?>
<!-- Generator: Adobe Illustrator 25.1.0, SVG Export Plug-In . SVG Version: 6.00 Build 0)  -->
<svg version="1.1" id="레이어_1" xmlns="http://www.w3.org/2000/svg" xmlns:xlink="http://www.w3.org/1999/xlink" x="0px"
	 y="0px" viewBox="0 0 24 24" style="enable-background:new 0 0 24 24;" xml:space="preserve">
<path d="M20.7,3.3c-1.8-1.8-4.7-1.8-6.5,0c0,0,0,0,0,0l0,0L12,5.5c-0.4,0.4-0.4,0.9,0,1.3l0,0c0.4,0.4,0.9,0.4,1.3,0l2.2-2.2l0,0
	c1-1.1,2.7-1.2,3.9-0.2s1.2,2.7,0.2,3.9c-0.1,0.1-0.1,0.1-0.2,0.2l-4.2,4.2c-0.9,0.9-2.2,1.1-3.3,0.4C11.4,13,11,13,10.7,13.3l0,0
	c-0.4,0.4-0.4,0.9,0,1.3c0.1,0.1,0.1,0.1,0.2,0.1c1.8,1.1,4.1,0.8,5.6-0.7l4.2-4.2C22.4,8,22.4,5.1,20.7,3.3
	C20.7,3.3,20.7,3.3,20.7,3.3z"/>
<path d="M8.5,19.4L8.5,19.4c-1,1.1-2.7,1.2-3.9,0.2c-1.1-1-1.2-2.7-0.2-3.9c0.1-0.1,0.1-0.1,0.2-0.2l4.2-4.2
	c0.9-0.9,2.3-1.1,3.3-0.4c0.4,0.2,0.8,0.2,1.1-0.1l0,0c0.4-0.4,0.4-0.9,0-1.3c-0.1-0.1-0.1-0.1-0.2-0.1c-1.8-1.1-4.1-0.8-5.6,0.7
	l-4.2,4.2c-1.8,1.8-1.8,4.7,0,6.5s4.7,1.8,6.5,0l0,0l2.2-2.2c0.4-0.4,0.4-0.9,0-1.3l0,0c-0.4-0.4-0.9-0.4-1.3,0L8.5,19.4z"/>
</svg>
