<svg id="레이어_1" data-name="레이어 1" xmlns="http://www.w3.org/2000/svg" viewBox="0 0 24 24"><path d="M20.66,3.34a4.58,4.58,0,0,0-6.48,0h0L12,5.51a.93.93,0,0,0,0,1.31h0a.92.92,0,0,0,1.3,0l2.18-2.18h0a2.74,2.74,0,1,1,3.87,3.87l-4.24,4.24a2.75,2.75,0,0,1-3.32.43.92.92,0,0,0-1.12.14h0a.92.92,0,0,0,.17,1.44,4.58,4.58,0,0,0,5.57-.7l4.24-4.24A4.58,4.58,0,0,0,20.66,3.34Z"/><path d="M8.51,19.36h0a2.74,2.74,0,1,1-3.87-3.87l4.24-4.24a2.76,2.76,0,0,1,3.33-.43.9.9,0,0,0,1.11-.14h0a.92.92,0,0,0-.18-1.44,4.58,4.58,0,0,0-5.56.7L3.34,14.18a4.58,4.58,0,0,0,6.48,6.48h0L12,18.49a.93.93,0,0,0,0-1.31h0a.92.92,0,0,0-1.3,0Z"/></svg>