<svg id="레이어_1" data-name="레이어 1" xmlns="http://www.w3.org/2000/svg" viewBox="0 0 24 24"><defs><style>.cls-1{fill:none;}.cls-2{fill:#222;}</style></defs><path class="cls-1" d="M11.8,13.2a2.43,2.43,0,0,0,2.4-2.4V5A2.4,2.4,0,1,0,9.4,5v5.8A2.43,2.43,0,0,0,11.8,13.2Z"/><path d="M9.54,11.56a2.38,2.38,0,0,1-.14-.76V5a2.4,2.4,0,1,1,4.8,0V6.22L16,4.15A4.23,4.23,0,0,0,11.9.8,4.31,4.31,0,0,0,7.6,5v5.8a4.28,4.28,0,0,0,.64,2.25Z"/><path d="M12.16,15.07A4.21,4.21,0,0,0,16.1,10.9v-.34Z"/><path d="M6.81,14.69A6.12,6.12,0,0,1,5.3,11a.9.9,0,0,0-.9-.9,1,1,0,0,0-1,.9,8.12,8.12,0,0,0,2.15,5.12Z"/><path d="M19.3,10.1a.9.9,0,0,0-.9.9,6.19,6.19,0,0,1-6.6,5.8,6.79,6.79,0,0,1-1.11,0L9.25,18.4a8.15,8.15,0,0,0,1.65.3v2.6H9.8a.9.9,0,0,0,0,1.8h4a.9.9,0,0,0,0-1.8H12.7V18.7A8.09,8.09,0,0,0,20.2,11,.9.9,0,0,0,19.3,10.1Z"/><rect class="cls-2" x="11" y="-2.58" width="2" height="29.16" rx="1" transform="translate(10.86 -4.93) rotate(41.14)"/></svg>