<?xml version="1.0" encoding="utf-8"?>
<!-- Generator: Adobe Illustrator 25.1.0, SVG Export Plug-In . SVG Version: 6.00 Build 0)  -->
<svg version="1.1" id="레이어_1" xmlns="http://www.w3.org/2000/svg" xmlns:xlink="http://www.w3.org/1999/xlink" x="0px"
	 y="0px" viewBox="0 0 24 24" style="enable-background:new 0 0 24 24;" xml:space="preserve">
<g>
	<path d="M20.2,11c0-0.5-0.4-0.9-0.9-0.9s-0.9,0.4-0.9,0.9c-0.2,3.4-3.1,6-6.6,5.8C8.4,17,5.5,14.4,5.3,11c0-0.5-0.4-0.9-0.9-0.9
		s-1,0.4-1,0.9c0.2,4.1,3.4,7.4,7.5,7.7v2.6H9.8c-0.5,0-0.9,0.4-0.9,0.9s0.4,0.9,0.9,0.9h4c0.5,0,0.9-0.4,0.9-0.9s-0.4-0.9-0.9-0.9
		l0,0h-1.1v-2.6C16.8,18.4,20,15.1,20.2,11L20.2,11z"/>
	<path d="M11.9,15.1c2.3,0,4.2-1.9,4.2-4.2l0,0V5c0-2.3-1.9-4.2-4.2-4.2S7.6,2.7,7.6,5v5.8C7.6,13.2,9.5,15.1,11.9,15.1
		C11.8,15.1,11.8,15.1,11.9,15.1z M9.4,5c0-1.3,1.1-2.4,2.4-2.4s2.4,1.1,2.4,2.4v5.8c0,1.3-1.1,2.4-2.4,2.4s-2.4-1.1-2.4-2.4V5z"/>
</g>
</svg>
