<?xml version="1.0" encoding="utf-8"?>
<!-- Generator: Adobe Illustrator 25.1.0, SVG Export Plug-In . SVG Version: 6.00 Build 0)  -->
<svg version="1.1" id="레이어_1" xmlns="http://www.w3.org/2000/svg" xmlns:xlink="http://www.w3.org/1999/xlink" x="0px"
	 y="0px" viewBox="0 0 24 24" style="enable-background:new 0 0 24 24;" xml:space="preserve">
<path d="M11.8,13.2c1.3,0,2.4-1.1,2.4-2.4V5c0-1.3-1.1-2.4-2.4-2.4S9.4,3.7,9.4,5v5.8C9.4,12.1,10.5,13.2,11.8,13.2z"/>
<path d="M9.5,11.6c-0.1-0.2-0.1-0.5-0.1-0.8V5c0-1.3,1.1-2.4,2.4-2.4s2.4,1.1,2.4,2.4v1.2L16,4.2c-0.4-1.9-2.1-3.3-4.1-3.4
	C9.6,0.8,7.7,2.7,7.6,5v5.8c0,0.8,0.2,1.6,0.6,2.2L9.5,11.6z"/>
<path d="M12.2,15.1c2.2-0.1,3.9-2,3.9-4.2v-0.3L12.2,15.1z"/>
<path d="M6.8,14.7c-0.9-1-1.4-2.3-1.5-3.7c0-0.5-0.4-0.9-0.9-0.9c-0.5,0-0.9,0.4-1,0.9c0.1,1.9,0.9,3.7,2.2,5.1L6.8,14.7z"/>
<path d="M19.3,10.1c-0.5,0-0.9,0.4-0.9,0.9c-0.2,3.4-3.1,6-6.6,5.8c0,0,0,0,0,0c-0.4,0-0.7,0-1.1,0l-1.4,1.6
	c0.5,0.2,1.1,0.3,1.6,0.3v2.6H9.8c-0.5,0-0.9,0.4-0.9,0.9c0,0.5,0.4,0.9,0.9,0.9h4c0.5,0,0.9-0.4,0.9-0.9c0-0.5-0.4-0.9-0.9-0.9
	h-1.1v-2.6c4.1-0.3,7.3-3.6,7.5-7.7C20.2,10.5,19.8,10.1,19.3,10.1C19.3,10.1,19.3,10.1,19.3,10.1z"/>
<path d="M21.6,1L21.6,1c0.4,0.4,0.5,1,0.1,1.4L3.8,22.9c-0.4,0.4-1,0.5-1.4,0.1l0,0C2,22.6,2,22,2.3,21.6L20.2,1.1
	C20.5,0.7,21.2,0.7,21.6,1z"/>
</svg>
