<svg viewBox="0 0 24 24" xmlns="http://www.w3.org/2000/svg">
<path d="M9.54 11.56C9.45224 11.316 9.40495 11.0593 9.4 10.8V4.99999C9.4 4.36347 9.65285 3.75302 10.1029 3.30293C10.553 2.85284 11.1635 2.59999 11.8 2.59999C12.4365 2.59999 13.047 2.85284 13.4971 3.30293C13.9471 3.75302 14.2 4.36347 14.2 4.99999V6.21999L16 4.14999C15.7998 3.20841 15.2844 2.36328 14.5389 1.7542C13.7935 1.14512 12.8626 0.808519 11.9 0.799988C10.7775 0.802227 9.70007 1.24234 8.89703 2.02671C8.09398 2.81108 7.62865 3.8778 7.6 4.99999V10.8C7.60026 11.5949 7.82187 12.374 8.24 13.05L9.54 11.56Z" />
<path d="M12.16 15.07C13.2222 15.0018 14.2192 14.5337 14.9502 13.76C15.6813 12.9863 16.0921 11.9644 16.1 10.9V10.56L12.16 15.07Z"/>
<path d="M6.81 14.69C5.90889 13.663 5.37734 12.3641 5.3 11C5.3 10.8818 5.27672 10.7648 5.23149 10.6556C5.18626 10.5464 5.11997 10.4472 5.0364 10.3636C4.95282 10.28 4.85361 10.2137 4.74442 10.1685C4.63522 10.1233 4.51819 10.1 4.4 10.1C4.15123 10.0987 3.91093 10.1903 3.72603 10.3567C3.54112 10.5231 3.42488 10.7525 3.4 11C3.49269 12.9063 4.25389 14.719 5.55 16.12L6.81 14.69Z"/>
<path d="M19.3 10.1C19.0613 10.1 18.8324 10.1948 18.6636 10.3636C18.4948 10.5324 18.4 10.7613 18.4 11C18.3504 11.8152 18.14 12.6126 17.7809 13.3461C17.4218 14.0797 16.921 14.7349 16.3075 15.274C15.694 15.8132 14.9799 16.2256 14.2063 16.4875C13.4326 16.7494 12.6148 16.8556 11.8 16.8C11.4306 16.8303 11.0594 16.8303 10.69 16.8L9.25 18.4C9.78822 18.5564 10.3411 18.657 10.9 18.7V21.3H9.8C9.56131 21.3 9.33239 21.3948 9.16361 21.5636C8.99482 21.7324 8.9 21.9613 8.9 22.2C8.9 22.4387 8.99482 22.6676 9.16361 22.8364C9.33239 23.0052 9.56131 23.1 9.8 23.1H13.8C14.0387 23.1 14.2676 23.0052 14.4364 22.8364C14.6052 22.6676 14.7 22.4387 14.7 22.2C14.7 21.9613 14.6052 21.7324 14.4364 21.5636C14.2676 21.3948 14.0387 21.3 13.8 21.3H12.7V18.7C14.6761 18.5575 16.5313 17.6949 17.9137 16.2756C19.2961 14.8564 20.1096 12.9792 20.2 11C20.2 10.7613 20.1052 10.5324 19.9364 10.3636C19.7676 10.1948 19.5387 10.1 19.3 10.1Z"/>
<path d="M21.6898 2.4328C22.0532 2.01687 22.0106 1.38514 21.5946 1.02179C21.1787 0.658444 20.547 0.701068 20.1836 1.117L2.31503 21.5713C1.95168 21.9872 1.99431 22.619 2.41024 22.9823C2.82616 23.3457 3.45789 23.303 3.82124 22.8871L21.6898 2.4328Z"/>
</svg>
