<svg viewBox="0 0 40 40" fill="none" xmlns="http://www.w3.org/2000/svg">
<path d="M1.42857 0C1.05654 0 0.725446 0.141366 0.435268 0.424107C0.145089 0.706848 0 1.04167 0 1.42857V38.5714C0 38.9583 0.145089 39.2931 0.435268 39.5759C0.725446 39.8587 1.05654 40 1.42857 40H38.5714C38.9435 40 39.2746 39.8587 39.5647 39.5759C39.8549 39.2931 40 38.9583 40 38.5714V1.42857C40 1.04167 39.8549 0.706848 39.5647 0.424107C39.2746 0.141366 38.9435 0 38.5714 0H1.42857ZM8.95089 10H16.6518L23.3482 20V10H31.0491V30H23.3482L16.6518 20V30H8.95089V10Z" fill="#2DB400"/>
</svg>
