<svg width="56" height="56" viewBox="0 0 56 56" fill="none" xmlns="http://www.w3.org/2000/svg">
<path d="M2 0C1.47916 0 1.01562 0.197913 0.609375 0.59375C0.203125 0.989587 0 1.45834 0 2V54C0 54.5416 0.203125 55.0104 0.609375 55.4062C1.01562 55.8021 1.47916 56 2 56H54C54.5209 56 54.9844 55.8021 55.3906 55.4062C55.7969 55.0104 56 54.5416 56 54V2C56 1.45834 55.7969 0.989587 55.3906 0.59375C54.9844 0.197913 54.5209 0 54 0H2ZM12.5312 14H23.3125L32.6875 28V14H43.4688V42H32.6875L23.3125 28V42H12.5312V14Z" fill="#2DB400"/>
</svg>
