<svg width="499" height="98" viewBox="0 0 499 98" fill="none" xmlns="http://www.w3.org/2000/svg">
<rect x="1" y="1" width="497" height="96" rx="15" fill="#EDF6FF" stroke="#D7D7D7" stroke-width="2"/>
<path d="M150.153 34.036V53.404H154.905V34.036H150.153ZM150.153 52.18V56.248H152.493C156.741 56.248 160.341 56.104 164.337 55.24L163.725 51.244C159.873 52.036 156.525 52.18 152.493 52.18H150.153ZM173.049 30.868V64.204H177.621V30.868H173.049ZM159.441 41.38V45.232H167.037V41.38H159.441ZM165.993 31.444V62.728H170.457V31.444H165.993ZM204.87 30.832V64.276H209.694V30.832H204.87ZM191.73 33.172C186.69 33.172 182.982 37.78 182.982 45.052C182.982 52.396 186.69 57.004 191.73 57.004C196.77 57.004 200.478 52.396 200.478 45.052C200.478 37.78 196.77 33.172 191.73 33.172ZM191.73 37.528C194.214 37.528 195.87 40.156 195.87 45.052C195.87 50.02 194.214 52.684 191.73 52.684C189.246 52.684 187.554 50.02 187.554 45.052C187.554 40.156 189.246 37.528 191.73 37.528ZM238.348 30.832V64.276H243.1V30.832H238.348ZM230.788 42.568V46.42H239.716V42.568H230.788ZM216.352 33.46V56.428H232.372V33.46H227.656V41.524H221.104V33.46H216.352ZM221.104 45.232H227.656V52.576H221.104V45.232ZM248.281 56.644V60.532H278.449V56.644H248.281ZM260.917 50.344V58.228H265.705V50.344H260.917ZM251.665 33.028V36.808H270.313V40.372H251.737V49.732H256.489V44.116H275.065V33.028H251.665ZM251.737 47.824V51.676H275.821V47.824H251.737ZM297.654 33.424V38.284C297.654 44.764 294.918 51.172 289.122 53.692L291.966 57.652C298.59 54.592 301.542 46.852 301.542 38.284V33.424H297.654ZM298.59 33.424V38.284C298.59 46.492 301.542 53.908 307.986 56.86L310.794 53.008C305.106 50.56 302.478 44.44 302.478 38.284V33.424H298.59ZM312.378 30.832V64.276H317.202V30.832H312.378ZM330.051 34.288V36.376C330.051 40.552 327.711 44.872 322.131 46.672L324.615 50.38C330.987 48.328 333.975 42.676 333.975 36.376V34.288H330.051ZM331.023 34.288V36.376C331.023 42.352 333.903 47.788 340.131 49.804L342.579 46.096C337.179 44.368 334.911 40.3 334.911 36.376V34.288H331.023ZM323.427 32.812V36.628H341.427V32.812H323.427ZM344.091 30.868V50.956H348.879V30.868H344.091ZM347.547 38.932V42.856H353.307V38.932H347.547ZM326.631 52.396V56.248H344.091V64.204H348.879V52.396H326.631ZM377.137 30.868V64.204H381.889V30.868H377.137ZM380.809 43.864V47.86H386.713V43.864H380.809ZM355.609 35.8V39.616H375.013V35.8H355.609ZM365.365 41.488C360.505 41.488 356.905 44.8 356.905 49.444C356.905 54.088 360.505 57.4 365.365 57.4C370.225 57.4 373.825 54.088 373.825 49.444C373.825 44.8 370.225 41.488 365.365 41.488ZM365.365 45.376C367.633 45.376 369.253 46.888 369.253 49.444C369.253 52 367.633 53.512 365.365 53.512C363.097 53.512 361.477 52 361.477 49.444C361.477 46.888 363.097 45.376 365.365 45.376ZM362.953 31.408V37.24H367.741V31.408H362.953ZM411.838 30.868V64.204H416.662V30.868H411.838ZM402.01 34.324V35.188C402.01 44.116 398.554 50.164 388.978 54.772L391.462 58.588C403.306 52.864 406.762 44.512 406.762 34.324H402.01ZM390.742 34.324V38.104H404.278V34.324H390.742Z" fill="black"/>
<path d="M35 21C34.4792 21 34.0156 21.1979 33.6094 21.5938C33.2031 21.9896 33 22.4583 33 23V75C33 75.5416 33.2031 76.0104 33.6094 76.4062C34.0156 76.8021 34.4792 77 35 77H87C87.5209 77 87.9844 76.8021 88.3906 76.4062C88.7969 76.0104 89 75.5416 89 75V23C89 22.4583 88.7969 21.9896 88.3906 21.5938C87.9844 21.1979 87.5209 21 87 21H35ZM45.5312 35H56.3125L65.6875 49V35H76.4688V63H65.6875L56.3125 49V63H45.5312V35Z" fill="#2DB400"/>
</svg>
