<?xml version="1.0" encoding="utf-8"?>
<!-- Generator: Adobe Illustrator 25.1.0, SVG Export Plug-In . SVG Version: 6.00 Build 0)  -->
<svg version="1.1" id="Capa_1" xmlns="http://www.w3.org/2000/svg" xmlns:xlink="http://www.w3.org/1999/xlink" x="0px" y="0px"
	 viewBox="0 0 477.2 477.2" style="enable-background:new 0 0 477.2 477.2;" xml:space="preserve">
<path d="M366.5,225.5l-0.4-0.5l-0.2-0.1c-0.1-0.1-0.3-0.3-0.5-0.4L140.4,8.8c-8.1-7.7-20.7-7.7-28.7,0c-7.8,7.4-8.3,19.7-0.9,27.6
	l0.8,0.8l210.3,201.5L111.8,439.9c-7.8,7.4-8.2,19.7-0.9,27.6l0.8,0.8c3.9,3.7,8.9,5.8,14.2,5.8c0.1,0,0.1,0,0.2,0
	c5.3,0,10.4-2,14.3-5.7l225-215.4C373.3,245.6,373.8,233.3,366.5,225.5z"/>
</svg>
