<?xml version="1.0" encoding="utf-8"?>
<!-- Generator: Adobe Illustrator 25.1.0, SVG Export Plug-In . SVG Version: 6.00 Build 0)  -->
<svg version="1.1" id="레이어_1" xmlns="http://www.w3.org/2000/svg" xmlns:xlink="http://www.w3.org/1999/xlink" x="0px"
	 y="0px" viewBox="0 0 24 24" style="enable-background:new 0 0 24 24;" xml:space="preserve">
<path d="M17.1,20.5c-0.5,0-0.9-0.2-1.2-0.5s-0.5-0.8-0.5-1.2V5.2c0-0.5,0.2-0.9,0.5-1.2s0.8-0.5,1.2-0.5c0.5,0,0.9,0.2,1.2,0.5
	s0.5,0.8,0.5,1.2v13.6c0,0.2,0,0.4-0.1,0.7c-0.1,0.2-0.2,0.4-0.4,0.6c-0.2,0.2-0.3,0.3-0.6,0.4C17.6,20.5,17.3,20.5,17.1,20.5z
	 M6.9,20.5c-0.5,0-0.9-0.2-1.2-0.5s-0.5-0.8-0.5-1.2V5.2c0-0.2,0-0.4,0.1-0.7C5.4,4.3,5.5,4.2,5.7,4C5.8,3.8,6,3.7,6.2,3.6
	c0.2-0.1,0.4-0.1,0.7-0.1s0.4,0,0.7,0.1C7.7,3.7,7.9,3.8,8.1,4c0.2,0.2,0.3,0.3,0.4,0.6C8.5,4.8,8.6,5,8.6,5.2v13.6
	c0,0.2,0,0.4-0.1,0.7c-0.1,0.2-0.2,0.4-0.4,0.6c-0.2,0.2-0.3,0.3-0.6,0.4C7.3,20.5,7.1,20.5,6.9,20.5z"/>
</svg>
