<svg id="레이어_1" data-name="레이어 1" xmlns="http://www.w3.org/2000/svg" viewBox="0 0 24 24"><defs><style>.cls-1{fill:#222;}</style></defs><path class="cls-1" d="M22.28,7.25,16.63,1.6a.89.89,0,0,0-1.28,0,4.31,4.31,0,0,0-1.07,4L11.72,8.1C10.31,7.68,6.7,6.94,4,9.6a.91.91,0,0,0,0,1.28l3.86,3.86L2.2,20.43a.89.89,0,0,0,0,1.28,1,1,0,0,0,.62.24.88.88,0,0,0,.63-.27L9.14,16,13,19.85a.87.87,0,0,0,.63.26.85.85,0,0,0,.62-.26c2.67-2.67,1.93-6.3,1.51-7.69L18.31,9.6a4.34,4.34,0,0,0,4-1.07A.88.88,0,0,0,22.28,7.25Zm-3.79.49a.9.9,0,0,0-1,.18l-3.36,3.36a.9.9,0,0,0-.2,1,8.14,8.14,0,0,1,.47,2.31,5.29,5.29,0,0,1-.81,3.31L9.77,14.11h0L6,10.3c2.4-1.62,5.49-.41,5.63-.34a.88.88,0,0,0,1-.2L15.94,6.4a.92.92,0,0,0,.18-1,2,2,0,0,1,0-1.75l4.12,4.13A2.17,2.17,0,0,1,18.49,7.74Z"/></svg>