<svg id="레이어_1" data-name="레이어 1" xmlns="http://www.w3.org/2000/svg" viewBox="0 0 24 24"><defs><style>.cls-1{fill:#222;}</style></defs><path class="cls-1" d="M22.32,7.29l0,0L16.63,1.6a.9.9,0,0,0-1.26,0l0,0a4.29,4.29,0,0,0-1.07,4L11.72,8.1C10.31,7.68,6.7,6.94,4,9.6a.91.91,0,0,0,0,1.28l3.86,3.86L2.2,20.43a.9.9,0,0,0,0,1.26l0,0a1,1,0,0,0,.62.24.87.87,0,0,0,.63-.27L9.14,16,13,19.85a.88.88,0,0,0,.63.26.85.85,0,0,0,.62-.26c2.67-2.67,1.93-6.3,1.51-7.69L18.31,9.6a4.35,4.35,0,0,0,4-1.07A.87.87,0,0,0,22.32,7.29Z"/></svg>