<?xml version="1.0" encoding="utf-8"?>
<!-- Generator: Adobe Illustrator 25.1.0, SVG Export Plug-In . SVG Version: 6.00 Build 0)  -->
<svg version="1.1" id="레이어_1" xmlns="http://www.w3.org/2000/svg" xmlns:xlink="http://www.w3.org/1999/xlink" x="0px"
	 y="0px" viewBox="0 0 24 24" style="enable-background:new 0 0 24 24;" xml:space="preserve">
<path d="M12.7,21.2c-0.2,0.2-0.4,0.3-0.7,0.3c-0.6,0-1-0.4-1-1v-17c0-0.6,0.4-1,1-1s1,0.4,1,1v17C13,20.8,12.9,21,12.7,21.2z"/>
<path d="M21.2,12.7C21,12.9,20.8,13,20.5,13h-17c-0.6,0-1-0.4-1-1s0.4-1,1-1h17c0.6,0,1,0.4,1,1C21.5,12.3,21.4,12.5,21.2,12.7z"/>
</svg>
