<?xml version="1.0" encoding="utf-8"?>
<!-- Generator: Adobe Illustrator 25.1.0, SVG Export Plug-In . SVG Version: 6.00 Build 0)  -->
<svg version="1.1" id="레이어_1" xmlns="http://www.w3.org/2000/svg" xmlns:xlink="http://www.w3.org/1999/xlink" x="0px"
	 y="0px" viewBox="0 0 24 24" style="enable-background:new 0 0 24 24;" xml:space="preserve">
<path d="M12.3,12.2c1.1-0.9,1.7-2.3,1.7-3.7c0-2.8-2.2-5-5-5s-5,2.2-5,5c0,1.4,0.6,2.8,1.7,3.7C2.8,13.5,1,16.4,1,19.5
	c0,0.6,0.4,1,1,1s1-0.4,1-1c0-3.3,2.7-6,6-6s6,2.7,6,6c0,0.6,0.4,1,1,1c0.6,0,1-0.4,1-1C17,16.4,15.2,13.5,12.3,12.2z M9,11.5
	c-1.7,0-3-1.3-3-3s1.3-3,3-3s3,1.3,3,3S10.7,11.5,9,11.5z M18.7,11.8c1.8-2.1,1.6-5.2-0.4-7.1c-0.9-0.8-2.1-1.3-3.3-1.3
	c-0.6,0-1,0.4-1,1s0.4,1,1,1c1.7,0,3,1.3,3,3c0,1.1-0.6,2.1-1.5,2.6c-0.3,0.2-0.5,0.5-0.5,0.8c0,0.3,0.2,0.7,0.5,0.9l0.4,0.3
	l0.1,0.1c2.5,1.2,4,3.7,4,6.4c0,0.6,0.4,1,1,1s1-0.4,1-1C23,16.4,21.4,13.5,18.7,11.8z"/>
</svg>
