<?xml version="1.0" encoding="utf-8"?>
<!-- Generator: Adobe Illustrator 25.1.0, SVG Export Plug-In . SVG Version: 6.00 Build 0)  -->
<svg version="1.1" id="레이어_1" xmlns="http://www.w3.org/2000/svg" xmlns:xlink="http://www.w3.org/1999/xlink" x="0px"
	 y="0px" viewBox="0 0 24 24" style="enable-background:new 0 0 24 24;" xml:space="preserve">
<path d="M18,19.3c-0.6,0-1-0.4-1-1c0-0.1,0-0.1,0-0.1l0,0c-0.1-0.1-0.3-0.3-0.6-0.5C16,17.2,15.5,17,15,17H9c-0.5,0-1,0.2-1.4,0.6
	C7.4,17.9,7.2,18,7,18.2l0,0v0.1c0,0.6-0.4,1-1,1s-1-0.4-1-1c0-1,0.4-1.4,0.8-1.7c0.1-0.1,0.2-0.2,0.3-0.3C6.9,15.5,7.9,15,9,15h6
	c1.1,0,2.1,0.5,2.9,1.3c0.1,0.1,0.2,0.2,0.3,0.3c0.4,0.3,0.8,0.7,0.8,1.7C19,18.9,18.6,19.3,18,19.3z"/>
<path d="M12,14c-2.2,0-4-1.8-4-4s1.8-4,4-4s4,1.8,4,4S14.2,14,12,14z M12,8c-1.1,0-2,0.9-2,2s0.9,2,2,2s2-0.9,2-2S13.1,8,12,8z"/>
<path d="M12,22C6.5,22,2,17.5,2,12S6.5,2,12,2s10,4.5,10,10S17.5,22,12,22z M12,4c-4.4,0-8,3.6-8,8s3.6,8,8,8s8-3.6,8-8S16.4,4,12,4
	z"/>
</svg>
