<?xml version="1.0" encoding="utf-8"?>
<!-- Generator: Adobe Illustrator 25.1.0, SVG Export Plug-In . SVG Version: 6.00 Build 0)  -->
<svg version="1.1" id="레이어_1" xmlns="http://www.w3.org/2000/svg" xmlns:xlink="http://www.w3.org/1999/xlink" x="0px"
	 y="0px" viewBox="0 0 24 24" style="enable-background:new 0 0 24 24;" xml:space="preserve">
<path d="M21.3,2H2.8C2.4,2,2,2.4,2,2.8l0,0v18.5c0,0.4,0.3,0.8,0.8,0.8c0,0,0.1,0,0.1,0h18.5c0.4,0,0.8-0.3,0.8-0.8c0,0,0-0.1,0-0.1
	V2.8C22.1,2.4,21.8,2,21.3,2z M20.5,6.7h-4.9l3-3h1.9L20.5,6.7z M16.2,3.7l-2.9,2.9H8.1l3-2.9L16.2,3.7z M3.7,3.7h5l-3,2.9h-2V3.7z
	 M20.5,20.5H3.7V8.4h16.8C20.5,8.4,20.5,20.5,20.5,20.5z"/>
<path d="M9.8,18.8c-0.2,0-0.2,0-0.3-0.1C9.2,18.6,9,18.3,9,18v-7.4c0-0.5,0.4-0.8,0.8-0.8l0,0c0.2,0,0.4,0.1,0.5,0.2l4.5,3.6
	c0.2,0.2,0.3,0.4,0.3,0.7c0,0.3-0.1,0.5-0.3,0.7l-4.5,3.6C10.2,18.7,10,18.8,9.8,18.8z M10.7,12.5v3.8l2.3-1.8L10.7,12.5z"/>
</svg>
