<svg id="레이어_1" data-name="레이어 1" xmlns="http://www.w3.org/2000/svg" viewBox="0 0 24 24"><defs><style>.cls-1{fill:#222;}</style></defs><path class="cls-1" d="M21.33,2H2.84A.84.84,0,0,0,2,2.84H2V21.33a.8.8,0,0,0,.84.84H21.33a.8.8,0,0,0,.84-.84V2.84A.9.9,0,0,0,21.33,2Zm-.84,4.71H15.61l3-3h1.85Zm-4.29-3L13.34,6.62H8.05l3-2.94Zm-12.52,0h5l-3,2.94h-2ZM20.49,20.49H3.68V8.39H20.49v12.1Z"/><path class="cls-1" d="M9.81,18.81c-.16,0-.25,0-.33-.09A1,1,0,0,1,9,18V10.65a.84.84,0,0,1,.84-.84,1.28,1.28,0,0,1,.51.17l4.54,3.62a1,1,0,0,1,.33.67.76.76,0,0,1-.33.67l-4.54,3.61A.52.52,0,0,1,9.81,18.81Zm.84-6.31v3.78L13,14.44Z"/></svg>